<svg xmlns="http://www.w3.org/2000/svg" viewBox="7996 859 25 22">
  <defs>
    <style>
      .cls-1 {
        fill: #b7bbc2;
        fill-rule: evenodd;
      }
    </style>
  </defs>
  <path id="Path_958" data-name="Path 958" class="cls-1" d="M22.942,2.247a7.179,7.179,0,0,0-9.943,0L1.6,13.183a5.21,5.21,0,0,0,0,7.51,5.591,5.591,0,0,0,7.734,0l11.4-10.938a3.715,3.715,0,0,0,0-5.364,3.99,3.99,0,0,0-5.524,0l-8.57,8.32a.745.745,0,0,0,0,1.074.8.8,0,0,0,1.105,0l8.57-8.321a2.4,2.4,0,0,1,3.313,0,2.232,2.232,0,0,1,0,3.219L8.23,19.62a3.987,3.987,0,0,1-5.524,0,3.714,3.714,0,0,1,0-5.363L13.993,3.427a5.581,5.581,0,0,1,7.733,0,5.2,5.2,0,0,1,0,7.51l-8.458,8.212a.74.74,0,0,0,0,1.073.8.8,0,0,0,1.1,0l8.568-8.32A6.687,6.687,0,0,0,22.942,2.247Z" transform="translate(7995.998 858.753)"/>
</svg>
