<svg xmlns="http://www.w3.org/2000/svg" viewBox="0 0 15 15">
  <defs>
    <style>
      .cls-1 {
        fill: #fff;
      }
    </style>
  </defs>
  <g id="boton-expandir" transform="translate(0 -0.002)">
    <g id="Group_408" data-name="Group 408" transform="translate(0 0.002)">
      <path id="Path_2505" data-name="Path 2505" class="cls-1" d="M7.3,250.14H.584a.584.584,0,0,0-.584.584v6.718a.584.584,0,0,0,.584.584H7.3a.584.584,0,0,0,.584-.584v-6.718A.584.584,0,0,0,7.3,250.14Zm-.584,6.718H1.168v-5.55h5.55Z" transform="translate(0 -243.027)"/>
      <path id="Path_2506" data-name="Path 2506" class="cls-1" d="M14.416,0H.584A.584.584,0,0,0,0,.586V6.011a.584.584,0,1,0,1.168,0V1.17H13.831V13.834H9.011a.584.584,0,1,0,0,1.168h5.4A.584.584,0,0,0,15,14.418V.586A.584.584,0,0,0,14.416,0Z" transform="translate(0 -0.002)"/>
      <path id="Path_2507" data-name="Path 2507" class="cls-1" d="M309.717,87.28a.584.584,0,0,0,.826,0l1.846-1.846v.84a.584.584,0,0,0,1.168,0V84.15a.571.571,0,0,0-.006-.062.577.577,0,0,0-.62-.645c-.014,0-.027,0-.04,0h-2.123a.584.584,0,1,0,0,1.169h.8l-1.846,1.846A.584.584,0,0,0,309.717,87.28Z" transform="translate(-300.744 -81.066)"/>
    </g>
  </g>
</svg>
