<svg xmlns="http://www.w3.org/2000/svg" viewBox="0 0 17 17">
  <defs>
    <style>
      .cls-1 {
        fill: #fff;
      }
    </style>
  </defs>
  <g id="boton-expandir" transform="translate(17 17.002) rotate(180)">
    <g id="Group_408" data-name="Group 408" transform="translate(0 0.002)">
      <path id="Path_2505" data-name="Path 2505" class="cls-1" d="M8.276,250.14H.662A.662.662,0,0,0,0,250.8v7.614a.662.662,0,0,0,.662.662H8.276a.662.662,0,0,0,.662-.662V250.8A.662.662,0,0,0,8.276,250.14Zm-.662,7.614H1.324v-6.29h6.29Z" transform="translate(0 -242.079)"/>
      <path id="Path_2506" data-name="Path 2506" class="cls-1" d="M16.338,0H.662A.662.662,0,0,0,0,.664V6.812a.662.662,0,1,0,1.324,0V1.326H15.676V15.678H10.212a.662.662,0,1,0,0,1.324h6.125A.662.662,0,0,0,17,16.34V.664A.662.662,0,0,0,16.338,0Z" transform="translate(0 -0.002)"/>
      <path id="Path_2507" data-name="Path 2507" class="cls-1" d="M309.74,87.792a.662.662,0,0,0,.936,0l2.092-2.092v.952a.662.662,0,0,0,1.324,0V84.245a.637.637,0,0,0-.007-.07.654.654,0,0,0-.7-.732c-.015,0-.03,0-.046,0h-2.406a.662.662,0,1,0,0,1.324h.9l-2.092,2.092A.662.662,0,0,0,309.74,87.792Z" transform="translate(-299.57 -80.75)"/>
    </g>
  </g>
</svg>
