<svg xmlns="http://www.w3.org/2000/svg" viewBox="0 0 277.419 156.812">
  <defs>
    <style>
      .cls-1 {
        fill: #3f4257;
      }

      .cls-1, .cls-2, .cls-3, .cls-4, .cls-5, .cls-6 {
        fill-rule: evenodd;
      }

      .cls-2 {
        fill: #474a60;
      }

      .cls-3 {
        fill: #3a3d51;
      }

      .cls-4 {
        fill: #303243;
      }

      .cls-4, .cls-5, .cls-6 {
        opacity: 0.6;
      }

      .cls-5 {
        fill: #2d2f3f;
      }

      .cls-6 {
        fill: #51546c;
      }
    </style>
  </defs>
  <g id="Group_406" data-name="Group 406" transform="translate(-34.427 -16.764)">
    <path id="Path_2413" data-name="Path 2413" class="cls-1" d="M320.42,120.4H46V20.048C46,18.917,47.343,18,49,18H320.42c1.656,0,3,.917,3,2.048V120.4Z" transform="translate(-11.573 -1.236)"/>
    <path id="Path_2414" data-name="Path 2414" class="cls-2" d="M11.56,189.166H277.913v-98.3H266.766v4.1h-8.8v8.7l-2.347-1.593V97.794H254.5l-.052-3.346h-6.453v3.584h-1.76v4.1h-7.627v-8.7h-3.52V86.768h-1.76V77.552h-1.76v-2.56h-7.627v2.56h-2.347v9.216h-2.347v18.944h-3.52V109.3h-4.107v-6.144l-13.494-8.192-1.173-.512h-15.84V80.624h-2.347V76.016h-14.08V66.288H131.83V89.839H124.2v-8.7H121.27L120.1,69.36h-2.933l-.587-8.7h-.587l-1.173-4.1h-.587L113.643,54h-.587l-.587,2.56h-.587l-1.173,4.1h-.587l-.587,8.7H106.6l-1.76,11.776h-2.933V94.447H83.135l-5.28,7.68v6.144h-3.52v-12.8h-3.52v-7.68H60.255v5.632H50.281V65.776H19.774V92.4H11.56v4.608H1v92.159Z" transform="translate(33.427 -25.412)"/>
    <path id="Path_2415" data-name="Path 2415" class="cls-3" d="M254.667,153.036H0V95.144H12.88V84.069H30.443V88.6h4.684v8.055H40.4V80.042H52.1V61.415h2.927V42.789h1.756V33.728h6.44l.585-10.572h2.342V22.15s.507-.22,1.207-.494c0,0,1.907-11.594,2.48-21.657a199.2,199.2,0,0,0,2.753,21.647c.7.273,1.171.5,1.171.5v1.007h2.342l.6,10.606,6.428-.034v9.061h1.756V61.415h2.927v29.2h4.1V74.5h23.418V91.117l7.611,3.524v3.02h3.513V103.2H128.8V66.953h18.149v25.17h4.1v5.034h4.684V93.634h8.2v4.531l2.927-1.51V91.62H180.9V68.463h32.2V91.62h3.513V85.076h8.782V91.62h3.513v10.572h2.342V96.654l4.684-6.041h18.734V77.021h22.247v76.015Z" transform="translate(34.427 20.54)"/>
    <path id="Path_2416" data-name="Path 2416" class="cls-4" d="M132.169,56.319v-.256h0a1.274,1.274,0,0,0-.053-.361,2.147,2.147,0,0,0-1.547-1.29,3.68,3.68,0,0,0-1.019-.141h0a3.685,3.685,0,0,0-1.02.141,3.159,3.159,0,0,0-.445.165,2.411,2.411,0,0,0-.707.484,1.548,1.548,0,0,0-.394.641,1.248,1.248,0,0,0-.053.361h0v6.4c0,1.131-1.34,2.048-2.994,2.048s-2.994-.917-2.994-2.048V52.223c0-1.131-1.34-2.048-2.994-2.048s-2.994.917-2.994,2.048V66.559c0,.848-1.005,1.536-2.245,1.536s-2.245-.688-2.245-1.536V54.783c0-.848-1.005-1.536-2.245-1.536s-2.245.688-2.245,1.536v5.632c0,1.131-1.34,2.048-2.994,2.048s-2.994-.917-2.994-2.048v-4.1c0-1.131-1.34-2.048-2.994-2.048a4.226,4.226,0,0,0-.81.085c-.12.023-.242.042-.355.075-1.07.31-1.821,1.033-1.827,1.876,0,0,0,.007,0,.011v-12.8h2.245V34.3h8.233l.748-10.752h2.994V22.527s.648-.224,1.542-.5A198.426,198.426,0,0,0,112.933,0a163.717,163.717,0,0,0,3.52,22.016c.894.278,1.5.512,1.5.512v1.024h2.994l.764,10.787,8.217-.035v9.216h2.245v12.8Z" transform="translate(-8.649 19.818)"/>
    <path id="Path_2417" data-name="Path 2417" class="cls-5" d="M347.169,148.8c-1.653,0-2.994.917-2.994,2.048v12.288c0,1.131-1.34,2.048-2.994,2.048s-2.994-.917-2.994-2.048V153.92c0-.848-1.005-1.536-2.245-1.536s-2.245.688-2.245,1.536v5.12c0,.848-1.005,1.536-2.245,1.536s-2.245-.688-2.245-1.536V147.776c0-1.131-1.34-2.048-2.994-2.048s-2.994.917-2.994,2.048v12.8c0,1.131-1.34,2.048-2.994,2.048s-2.994-.917-2.994-2.048v-8.96c0-1.555-1.843-2.816-4.116-2.816S309,150.06,309,151.616V136h41.163v14.848C350.163,149.717,348.822,148.8,347.169,148.8Z" transform="translate(-77.74 -65.428)"/>
    <path id="Path_2418" data-name="Path 2418" class="cls-6" d="M226.994,89.264c1.653,0,2.994.916,2.994,2.048v5.632c0,.848,1.005,1.536,2.245,1.536s2.245-.688,2.245-1.536V87.728c0-.848,1.005-1.536,2.245-1.536s2.245.688,2.245,1.536V101.04c0,1.131,1.34,2.048,2.994,2.048s2.994-.917,2.994-2.048V84.656c0-.848,1.005-1.536,2.245-1.536s2.245.688,2.245,1.536v9.216c0,.848,1.005,1.536,2.245,1.536s2.245-.688,2.245-1.536v-5.12c0-1.131,1.34-2.048,2.994-2.048s2.994.917,2.994,2.048v8.192c0,1.131,1.34,2.048,2.994,2.048s2.994-.917,2.994-2.048V78H224V91.312C224,90.18,225.34,89.264,226.994,89.264Z" transform="translate(-56.355 -37.124)"/>
  </g>
</svg>
