<svg xmlns="http://www.w3.org/2000/svg" width="25" height="25" viewBox="963.333 209.655 24.667 25">
  <defs>
    <style>
      .cls-1 {
        fill: #fff;
        fill-rule: evenodd;
      }
    </style>
  </defs>
  <path id="Path_286" data-name="Path 286" class="cls-1" d="M24.62,23.132c-.007.034-.022.066-.03.1a2.333,2.333,0,0,1-.1.342c-.01.025-.026.046-.036.07a2.4,2.4,0,0,1-.178.331c-.011.016-.027.03-.038.047a2.384,2.384,0,0,1-.244.3c-.035.036-.076.061-.113.094a2.371,2.371,0,0,1-.237.2,1.908,1.908,0,0,1-.191.106,2.355,2.355,0,0,1-.21.113c-.061.025-.124.039-.186.058a2.264,2.264,0,0,1-.251.076c-.059.011-.119.011-.178.018a1.34,1.34,0,0,1-.539,0c-.059-.007-.119-.007-.177-.018a2.441,2.441,0,0,1-.251-.075c-.062-.02-.125-.034-.185-.059a2.266,2.266,0,0,1-.21-.113,2.079,2.079,0,0,1-.191-.106,2.41,2.41,0,0,1-.239-.2c-.036-.033-.077-.059-.112-.094l-3.694-3.63A9.137,9.137,0,0,1,2.949,22.477,3.982,3.982,0,0,1,1.168,24.9.765.765,0,0,1,.11,24.63a.787.787,0,0,1,.264-1.073,2.455,2.455,0,0,0,.859-3.269A9.423,9.423,0,0,1,4.328,7.7L2.538,5.885c-.018-.019-.025-.043-.042-.063a1.529,1.529,0,0,1-.41.063A1.524,1.524,0,0,1,1,5.427L.452,4.875a1.579,1.579,0,0,1,0-2.213L2.632.452a1.562,1.562,0,0,1,2.18,0L5.356,1a1.54,1.54,0,0,1,.39,1.521A.374.374,0,0,1,5.8,2.56l3.78,3.705a9.213,9.213,0,0,1,7.446,4.3l3.7-3.639a2.2,2.2,0,0,1,.234-.195c.035-.027.066-.06.1-.086a2.169,2.169,0,0,1,.3-.165c.033-.016.063-.038.1-.052a2.107,2.107,0,0,1,.306-.1c.044-.013.086-.03.13-.039a2.331,2.331,0,0,1,.389-.04c.022,0,.043-.007.066-.007s.043.006.065.007a2.36,2.36,0,0,1,.385.039,1.98,1.98,0,0,1,.229.07c.069.021.138.037.205.064s.139.073.208.111a2.1,2.1,0,0,1,.192.106,2.3,2.3,0,0,1,.238.2c.037.033.077.057.113.093a2.384,2.384,0,0,1,.244.3c.011.016.027.03.038.047a2.44,2.44,0,0,1,.177.328c.012.026.027.048.038.073a2.362,2.362,0,0,1,.1.342c.008.034.023.066.03.1a2.47,2.47,0,0,1,.046.467V22.664A2.479,2.479,0,0,1,24.62,23.132ZM3.722,1.558,1.542,3.77l.544.55L4.267,2.11ZM4.813,3.767,3.722,4.874,5.764,6.945a9.032,9.032,0,0,1,1.754-.526ZM9.25,7.811a7.773,7.773,0,0,0-7.708,7.817,7.851,7.851,0,0,0,.943,3.741c.01.016.027.024.037.041s.025.06.041.09A7.692,7.692,0,0,0,9.25,23.446a7.818,7.818,0,0,0,0-15.634ZM20.042,9.778,17.779,12a9.485,9.485,0,0,1,0,7.254l2.262,2.224Zm3.083-1.185a.747.747,0,0,0-.207-.524c-.012-.013-.022-.027-.035-.039a.771.771,0,0,0-1.3.563V22.664a.786.786,0,0,0,.223.549.951.951,0,0,0,.841.173.75.75,0,0,0,.24-.161c.012-.012.02-.024.031-.037a.747.747,0,0,0,.207-.524ZM13.05,19.534a.493.493,0,0,1-.647-.271L11.559,17.2a1.12,1.12,0,0,1,.417-1.022l2.036-.854a.492.492,0,0,1,.647.272A3.673,3.673,0,0,1,13.05,19.534Zm-.213-7.1-.008,0-2.032.856a1.087,1.087,0,0,1-1.007-.423L8.946,10.8a.5.5,0,0,1,.268-.656,3.619,3.619,0,0,1,3.833,1.52.569.569,0,0,1,.059.107A.5.5,0,0,1,12.837,12.429Zm-2.874,2.9a.786.786,0,0,1-.417,1.022.767.767,0,0,1-1.007-.423.785.785,0,0,1,.417-1.022A.767.767,0,0,1,9.963,15.331ZM8.711,18.395l.843,2.064a.506.506,0,0,1-.268.657A3.578,3.578,0,0,1,5.4,19.483a.5.5,0,0,1,.267-.657L7.7,17.972A1.088,1.088,0,0,1,8.711,18.395ZM6.524,15.084l-2.035.854a.493.493,0,0,1-.647-.272,3.675,3.675,0,0,1,1.609-3.94A.494.494,0,0,1,6.1,12l.843,2.064A1.118,1.118,0,0,1,6.524,15.084Z" transform="translate(963.333 209.646)"/>
</svg>
