<svg xmlns="http://www.w3.org/2000/svg" viewBox="1698.041 8127.999 26.033 20">
  <defs>
    <style>
      .cls-1 {
        fill: none;
        stroke: #9a9fbf;
        stroke-width: 2px;
        fill-rule: evenodd;
      }
    </style>
  </defs>
  <g id="Group_198" data-name="Group 198" transform="translate(1211.833 7407.5)">
    <path id="Path_1480" data-name="Path 1480" class="cls-1" d="M506.527,739.5h-1v-2h1a2,2,0,0,0,2-2v-8a2,2,0,0,0-2-2h-4.005v-2h-8.011v2h-4.005a2,2,0,0,0-2,2v8a2,2,0,0,0,2,2h9.012v2h-9.012a4,4,0,0,1-4.005-4v-8a4,4,0,0,1,4.005-4h2a2,2,0,0,1,2-2h8.011a2,2,0,0,1,2,2h2a4,4,0,0,1,4.005,4v8A4,4,0,0,1,506.527,739.5Z" transform="translate(0.707)"/>
    <path id="Path_1481" data-name="Path 1481" class="cls-1" d="M498.505,727.5a4,4,0,1,1-4.005,4A4,4,0,0,1,498.505,727.5Z" transform="translate(0.718)"/>
  </g>
</svg>
