<svg xmlns="http://www.w3.org/2000/svg" width="7" hight="12" viewBox="2040.778 -212.62 6.896 12">
  <defs>
    <style>

    </style>
  </defs>
  <g id="microphone-black-shape" transform="translate(2040.778 -212.62)">
    <path id="Path_1754" data-name="Path 1754" class="cls-1" d="M148.094,8.307a1.7,1.7,0,0,0,1.353-.678A2.469,2.469,0,0,0,150.01,6V2.308a2.469,2.469,0,0,0-.563-1.63,1.689,1.689,0,0,0-2.705,0,2.469,2.469,0,0,0-.563,1.63V6a2.469,2.469,0,0,0,.563,1.63A1.7,1.7,0,0,0,148.094,8.307Z" transform="translate(-144.647)"/>
    <path id="Path_1755" data-name="Path 1755" class="cls-1" d="M79.869,182.861a.333.333,0,0,0-.539,0,.492.492,0,0,0-.114.324v.923a3.458,3.458,0,0,1-.787,2.282,2.366,2.366,0,0,1-3.789,0,3.457,3.457,0,0,1-.787-2.282v-.923a.492.492,0,0,0-.114-.324.333.333,0,0,0-.539,0,.492.492,0,0,0-.114.324v.923a4.5,4.5,0,0,0,.883,2.773,3.2,3.2,0,0,0,2.182,1.352v.952H74.619a.341.341,0,0,0-.269.137.52.52,0,0,0,0,.649.341.341,0,0,0,.269.137H78.45a.341.341,0,0,0,.269-.137.519.519,0,0,0,0-.649.341.341,0,0,0-.269-.137H76.918v-.952a3.2,3.2,0,0,0,2.182-1.352,4.5,4.5,0,0,0,.883-2.773v-.923A.492.492,0,0,0,79.869,182.861Z" transform="translate(-73.087 -178.109)"/>
  </g>
</svg>
