<svg xmlns="http://www.w3.org/2000/svg" width="12" hight="12" viewBox="2020.388 -213 12 12">
  <defs>
    <style>
      .cls-1 {
        fill-rule: evenodd;
      }
    </style>
  </defs>
  <path id="Path_1764" data-name="Path 1764" class="cls-1" d="M11.977,10.608c0,.017-.01.532-.015.548a1.108,1.108,0,0,1-.051.164c0,.012-.013.022-.018.033a1.147,1.147,0,0,1-.087.159c-.005.008-.013.015-.018.023a1.147,1.147,0,0,1-.119.144c-.017.017-.037.029-.055.045a1.151,1.151,0,0,1-.116.094.932.932,0,0,1-.093.051,1.15,1.15,0,0,1-.1.054c-.03.012-.06.019-.09.028a1.112,1.112,0,0,1-.122.036c-.028.005-.058.005-.087.009a.661.661,0,0,1-.262,0c-.029,0-.058,0-.086-.009a1.2,1.2,0,0,1-.122-.036c-.03-.009-.061-.016-.09-.028a1.107,1.107,0,0,1-.1-.054,1.015,1.015,0,0,1-.093-.051,1.169,1.169,0,0,1-.116-.094c-.018-.016-.038-.028-.054-.045l-1.8-1.743a4.482,4.482,0,0,1-6.848.857,1.914,1.914,0,0,1-.867,1.162.375.375,0,0,1-.386-.644A1.17,1.17,0,0,0,.6,9.743,4.484,4.484,0,0,1,2.106,3.7L1.235,2.83c-.009-.009-.012-.021-.02-.03a.753.753,0,0,1-.2.03.746.746,0,0,1-.53-.22L.22,2.345a.751.751,0,0,1,0-1.062L1.28.222a.767.767,0,0,1,1.06,0l.265.265a.744.744,0,0,1,.22.531.736.736,0,0,1-.03.2.182.182,0,0,1,.025.016L4.66,3.012A4.494,4.494,0,0,1,8.282,5.076l1.8-1.747a1.069,1.069,0,0,1,.114-.093c.017-.013.032-.029.051-.041a1.06,1.06,0,0,1,.146-.079c.016-.008.031-.018.047-.025a1.035,1.035,0,0,1,.149-.046c.021-.006.042-.014.063-.019a1.149,1.149,0,0,1,.189-.019c.011,0,.021,0,.032,0s.021,0,.031,0a1.163,1.163,0,0,1,.187.019.973.973,0,0,1,.111.033c.033.01.067.018.1.031s.068.035.1.053a1.025,1.025,0,0,1,.093.051,1.118,1.118,0,0,1,.116.095c.018.016.037.027.055.045a1.147,1.147,0,0,1,.119.144c.005.008.013.015.018.023a1.166,1.166,0,0,1,.086.158c.006.012.013.023.018.035a1.122,1.122,0,0,1,.051.164c0,.017.011.032.015.048A1.17,1.17,0,0,1,12,4.129v6.754C12,10.96,11.992,10.535,11.977,10.608ZM1.81.752.75,1.814l.265.264L2.076,1.018Zm.531,1.06-.531.531.994.994a4.439,4.439,0,0,1,.853-.253ZM4.5,3.754A3.751,3.751,0,0,0,1.209,9.3c0,.008.013.012.018.02s.012.029.02.043A3.749,3.749,0,1,0,4.5,3.754ZM9.75,4.7l-1.1,1.068a4.5,4.5,0,0,1,0,3.482l1.1,1.068Zm1.5-.569a.356.356,0,0,0-.1-.251c-.006-.006-.01-.013-.017-.019a.368.368,0,0,0-.515,0,.372.372,0,0,0-.117.27v6.754a.411.411,0,0,0,.517.346.365.365,0,0,0,.117-.077l.015-.018a.356.356,0,0,0,.1-.251Zm-4.9,5.252a.241.241,0,0,1-.315-.13l-.41-.991a.534.534,0,0,1,.2-.49l.99-.41a.241.241,0,0,1,.315.131A1.753,1.753,0,0,1,6.349,9.381Zm-.1-3.41,0,0-.988.411a.532.532,0,0,1-.49-.2l-.41-.991a.241.241,0,0,1,.13-.315A1.772,1.772,0,0,1,6.347,5.6a.272.272,0,0,1,.029.051A.241.241,0,0,1,6.245,5.971Zm-1.4,1.393a.375.375,0,1,1-.49-.2A.376.376,0,0,1,4.847,7.363ZM4.238,8.834l.41.991a.241.241,0,0,1-.13.315,1.751,1.751,0,0,1-1.89-.783.24.24,0,0,1,.13-.315l.99-.41A.532.532,0,0,1,4.238,8.834ZM3.174,7.245l-.99.41a.241.241,0,0,1-.315-.131,1.754,1.754,0,0,1,.783-1.891.241.241,0,0,1,.315.131l.41.991A.533.533,0,0,1,3.174,7.245Z" transform="translate(2020.388 -213.009)"/>
</svg>
