<svg xmlns="http://www.w3.org/2000/svg" width="17" hight="20" viewBox="7314.5 210.5 17 19.207">
  <defs>
    <style>
      .cls-1, .cls-2 {
        fill: #9a9fbf;
      }

      .cls-1 {
        stroke: #9a9fbf;
      }
    </style>
  </defs>
  <g id="Group_136" data-name="Group 136" transform="translate(7315 211)">
    <path id="Path_953" data-name="Path 953" class="cls-1" d="M20,19.8H7a1.372,1.372,0,1,1,0-2.731H17a2.4,2.4,0,0,0,2.5-2.276V4.776A2.4,2.4,0,0,0,17,2.5H7A2.4,2.4,0,0,0,4.5,4.776V18.431A2.4,2.4,0,0,0,7,20.707H20a.457.457,0,1,0,0-.91ZM5.5,4.776A1.439,1.439,0,0,1,7,3.41H17a1.439,1.439,0,0,1,1.5,1.366V14.79A1.439,1.439,0,0,1,17,16.155H7a2.655,2.655,0,0,0-1.5.456Z" transform="translate(-4.5 -2.5)"/>
    <path id="Path_954" data-name="Path 954" class="cls-2" d="M10,11.052a2.656,2.656,0,0,0,1.376-.379l2.77,2.522a.538.538,0,0,0,.708,0,.427.427,0,0,0,0-.644l-2.77-2.522A2.121,2.121,0,0,0,12.5,8.776,2.4,2.4,0,0,0,10,6.5,2.4,2.4,0,0,0,7.5,8.776,2.4,2.4,0,0,0,10,11.052ZM10,7.41a1.439,1.439,0,0,1,1.5,1.366A1.439,1.439,0,0,1,10,10.141,1.439,1.439,0,0,1,8.5,8.776,1.439,1.439,0,0,1,10,7.41Z" transform="translate(-3.658 -2.859)"/>
  </g>
</svg>
