<svg xmlns="http://www.w3.org/2000/svg" width="17" height="17" viewBox="7314 254 17 17">
  <defs>
    <style>
      .cls-1 {
        fill: #9a9fbf;
        stroke: #9a9fbf;
        fill-rule: evenodd;
      }
    </style>
  </defs>
  <path id="Path_950" data-name="Path 950" class="cls-1" d="M14.624,3.649a10.08,10.08,0,0,0-3.014-.478,7.523,7.523,0,0,0-1.6.161,5.022,5.022,0,0,1,2.848,3.415.206.206,0,0,1,.19.179v0a4.679,4.679,0,0,1,.107,1c0,.024,0,.048,0,.072a12.764,12.764,0,0,1,2.694.612c.02-.226.03-.455.03-.687A7.857,7.857,0,0,0,14.624,3.649ZM9.426.155C8,.986,6.887,2.052,4.32,2.052A6.032,6.032,0,0,1,2.9,1.877,7.9,7.9,0,0,0,.5,5.4a6.4,6.4,0,0,0,2.408.494c.172,0,.336-.005.5-.014A5.023,5.023,0,0,1,6.81,3.043a.206.206,0,0,1,.179-.191h0a4.707,4.707,0,0,1,1.994,0H8.97a.2.2,0,0,1,.182.19,4.964,4.964,0,0,1,.692.221,7.387,7.387,0,0,1,1.767-.2,10.054,10.054,0,0,1,2.926.45A7.9,7.9,0,0,0,9.426.155ZM3,1.794a6,6,0,0,0,1.32.151c2.483,0,3.6-1,4.967-1.815a7.945,7.945,0,0,0-1.3-.108A7.861,7.861,0,0,0,3,1.794ZM.961,11.527a8.54,8.54,0,0,0,3.059-.538,4.994,4.994,0,0,1-.914-1.9.2.2,0,0,1-.192-.182v.01a4.7,4.7,0,0,1,0-1.994v0a.206.206,0,0,1,.192-.179,4.981,4.981,0,0,1,.249-.76C3.211,5.994,3.062,6,2.907,6A6.418,6.418,0,0,1,.468,5.492a7.914,7.914,0,0,0,.493,6.034ZM9.154,4.315a3.8,3.8,0,0,1,2.431,2.43h1.161A4.912,4.912,0,0,0,9.154,3.155ZM4.491,6.745H5A3.211,3.211,0,0,1,6.808,4.939V4.427A3.692,3.692,0,0,0,4.491,6.745Zm-.113,0a3.8,3.8,0,0,1,2.431-2.43V3.155a4.912,4.912,0,0,0-3.589,3.59Zm2.431,4.777A3.8,3.8,0,0,1,4.377,9.091H3.219a4.912,4.912,0,0,0,3.589,3.59ZM4.961,8.985a3.206,3.206,0,0,1,0-2.133h-.5a3.7,3.7,0,0,0,0,2.133Zm-.471.106a3.691,3.691,0,0,0,2.317,2.318V10.9A3.211,3.211,0,0,1,5,9.091Zm6.982,0h-.512A3.211,3.211,0,0,1,9.154,10.9v.511A3.691,3.691,0,0,0,11.473,9.091ZM9.154,11.523v1.159a4.912,4.912,0,0,0,3.591-3.591h-1.16A3.8,3.8,0,0,1,9.154,11.523Zm2.319-4.777A3.691,3.691,0,0,0,9.154,4.427v.513A3.211,3.211,0,0,1,10.96,6.745ZM11,6.852a3.2,3.2,0,0,1,0,2.133h.506a3.7,3.7,0,0,0,0-2.133ZM7.982,11.013a3.1,3.1,0,0,0,3.092-2.96,10.26,10.26,0,0,0-5.226,2.106A3.084,3.084,0,0,0,7.982,11.013Zm0,.587a3.683,3.683,0,0,0,1.066-.157v-.5a3.206,3.206,0,0,1-2.133,0v.5A3.682,3.682,0,0,0,7.982,11.6Zm-.905,1.287a4.279,4.279,0,0,0,1.814,0H8.881c.121-.026.167-.065.167-.194V11.555a3.808,3.808,0,0,1-2.133,0v1.137c0,.128.033.16.164.194h0Zm-3.871-3.9H4.344a3.807,3.807,0,0,1,0-2.133H3.206c-.128,0-.16.033-.194.164v0a4.276,4.276,0,0,0,0,1.813V8.818C3.038,8.939,3.077,8.985,3.206,8.985ZM7.982,4.823a3.094,3.094,0,0,0-2.2,5.269c1.491-.916,2.8-1.965,5.3-2.147,0-.009,0-.019,0-.028A3.1,3.1,0,0,0,7.982,4.823Zm0-.587a3.681,3.681,0,0,0-1.067.157V4.9a3.205,3.205,0,0,1,2.131,0c0-.018,0-.042,0-.078V4.393A3.681,3.681,0,0,0,7.982,4.236ZM8.89,2.949a4.279,4.279,0,0,0-1.814,0h0c-.132.034-.164.066-.164.194V4.282a3.806,3.806,0,0,1,2.133,0V3.143c0-.129-.047-.168-.167-.194H8.89Zm3.866,3.9H11.617a3.807,3.807,0,0,1,0,2.133h1.138c.129,0,.168-.047.194-.167v.009a4.339,4.339,0,0,0,.094-.741c0-.036,0-.064,0-.106,0-.02,0-.039,0-.059a4.257,4.257,0,0,0-.1-.907v0C12.916,6.884,12.884,6.852,12.756,6.852ZM2.676,13.761a6.9,6.9,0,0,0,4,1.436c3.823,0,4.267-2.471,7.75-2.718a7.85,7.85,0,0,0,1.412-3.772A12.757,12.757,0,0,0,13.15,8.1a4.765,4.765,0,0,1-.1.819v-.01a.2.2,0,0,1-.19.182,5.02,5.02,0,0,1-3.705,3.7.2.2,0,0,1-.182.19h.01a4.707,4.707,0,0,1-1.994,0h0a.206.206,0,0,1-.179-.191,5.014,5.014,0,0,1-2.725-1.722,8.479,8.479,0,0,1-3.068.562A7.925,7.925,0,0,0,2.676,13.761ZM7.983,15.81a7.882,7.882,0,0,0,6.361-3.219c-3.409.28-3.876,2.712-7.668,2.712a6.541,6.541,0,0,1-3.223-.923A7.857,7.857,0,0,0,7.983,15.81Zm0,.107a8,8,0,1,1,8-8A8,8,0,0,1,7.982,15.917Z" transform="translate(7314.518 254.583)"/>
</svg>
