<svg xmlns="http://www.w3.org/2000/svg" viewBox="2403.627 505.988 15 15">
  <defs>
    <style>
      .cls-1 {
        fill: #9a9fbf;
        fill-rule: evenodd;
      }
    </style>
  </defs>
  <path id="Path_2393" data-name="Path 2393" class="cls-1" d="M14.972,13.883c0,.021-.013.039-.018.06a1.386,1.386,0,0,1-.064.2c-.006.015-.016.028-.022.042a1.434,1.434,0,0,1-.108.2c-.007.01-.016.018-.023.028a1.434,1.434,0,0,1-.149.181c-.022.022-.046.037-.069.056a1.439,1.439,0,0,1-.144.118,1.166,1.166,0,0,1-.116.063,1.438,1.438,0,0,1-.127.068c-.037.015-.075.023-.113.035a1.391,1.391,0,0,1-.152.045c-.036.007-.072.007-.108.011a.826.826,0,0,1-.328,0c-.036,0-.072,0-.108-.011a1.5,1.5,0,0,1-.152-.045c-.037-.012-.076-.02-.112-.035a1.384,1.384,0,0,1-.128-.068,1.27,1.27,0,0,1-.116-.063,1.462,1.462,0,0,1-.145-.118c-.022-.02-.047-.035-.068-.056l-2.246-2.178a5.6,5.6,0,0,1-8.56,1.071A2.392,2.392,0,0,1,.71,14.942a.469.469,0,0,1-.483-.8A1.462,1.462,0,0,0,.75,12.177,5.605,5.605,0,0,1,2.632,4.624L1.543,3.535c-.011-.011-.015-.026-.025-.038a.941.941,0,0,1-.249.038A.933.933,0,0,1,.606,3.26L.275,2.929a.939.939,0,0,1,0-1.328L1.6.275a.959.959,0,0,1,1.326,0l.331.332a.929.929,0,0,1,.275.664.92.92,0,0,1-.037.249.228.228,0,0,1,.032.02l2.3,2.223a5.617,5.617,0,0,1,4.528,2.581L12.6,4.16a1.336,1.336,0,0,1,.143-.117c.022-.016.04-.036.063-.052a1.325,1.325,0,0,1,.183-.1c.02-.01.038-.023.059-.031a1.294,1.294,0,0,1,.186-.058c.027-.008.052-.018.079-.023a1.436,1.436,0,0,1,.237-.024c.013,0,.026,0,.04,0s.026,0,.039,0a1.454,1.454,0,0,1,.234.023,1.216,1.216,0,0,1,.139.042c.042.013.084.022.125.038s.084.044.127.067a1.282,1.282,0,0,1,.117.064,1.4,1.4,0,0,1,.145.118c.022.02.047.034.068.056a1.434,1.434,0,0,1,.149.181c.007.01.016.018.023.028a1.458,1.458,0,0,1,.107.2c.007.015.016.029.023.044a1.4,1.4,0,0,1,.064.2c.005.021.014.039.018.06a1.463,1.463,0,0,1,.028.28V13.6A1.468,1.468,0,0,1,14.972,13.883ZM2.263.938.937,2.265l.331.33L2.594,1.27Zm.664,1.325-.664.664L3.505,4.171a5.548,5.548,0,0,1,1.066-.316Zm2.7,2.427a4.689,4.689,0,0,0-4.114,6.935c.006.009.016.015.022.024s.015.036.025.054A4.686,4.686,0,1,0,5.625,4.69Zm6.562,1.18L10.812,7.2a5.621,5.621,0,0,1,0,4.352l1.376,1.334Zm1.875-.711a.445.445,0,0,0-.126-.314c-.007-.008-.013-.016-.021-.023a.459.459,0,0,0-.644,0,.465.465,0,0,0-.147.338V13.6a.513.513,0,0,0,.647.433.456.456,0,0,0,.146-.1c.007-.007.012-.015.019-.022a.445.445,0,0,0,.126-.314ZM7.936,11.724a.3.3,0,0,1-.394-.163l-.513-1.239a.668.668,0,0,1,.254-.613L8.521,9.2a.3.3,0,0,1,.393.163A2.191,2.191,0,0,1,7.936,11.724ZM7.806,7.461l-.005,0-1.236.514a.665.665,0,0,1-.613-.254L5.44,6.484A.3.3,0,0,1,5.6,6.091,2.215,2.215,0,0,1,7.934,7a.34.34,0,0,1,.036.064A.3.3,0,0,1,7.806,7.461ZM6.058,9.2a.469.469,0,1,1-.613-.254A.47.47,0,0,1,6.058,9.2ZM5.3,11.041l.513,1.238a.3.3,0,0,1-.163.394,2.188,2.188,0,0,1-2.362-.979.3.3,0,0,1,.163-.394l1.237-.513A.665.665,0,0,1,5.3,11.041ZM3.967,9.054l-1.237.513A.3.3,0,0,1,2.336,9.4a2.192,2.192,0,0,1,.979-2.364.3.3,0,0,1,.394.163l.513,1.238A.667.667,0,0,1,3.967,9.054Z" transform="translate(2403.627 505.979)"/>
</svg>
