<svg xmlns="http://www.w3.org/2000/svg" viewBox="2896.048 336.009 20 20">
  <defs>
    <style>
      .cls-1 {
        fill: #6da2fe;
      }

      .cls-1, .cls-2 {
        fill-rule: evenodd;
      }

      .cls-2 {
        fill: #fff;
      }
    </style>
  </defs>
  <g id="Check_Icon" data-name="Check Icon" transform="translate(2895.96 337.657)">
    <path id="Path_805" data-name="Path 805" class="cls-1" d="M315.722,96.5h15.556a2.222,2.222,0,0,1,2.222,2.222v15.556a2.222,2.222,0,0,1-2.222,2.222H315.722a2.222,2.222,0,0,1-2.222-2.222V98.722A2.222,2.222,0,0,1,315.722,96.5Z" transform="translate(-313.412 -98.148)"/>
    <path id="Path_1432" data-name="Path 1432" class="cls-2" d="M4.326,9.985,1.469,6.772.04,8.379,4.326,13.2l7.142-8.035L10.04,3.557ZM12.9.343,11.468,1.95,12.9,3.557,14.326,1.95Z" transform="translate(2.479 2.282)"/>
  </g>
</svg>
