<svg xmlns="http://www.w3.org/2000/svg" viewBox="1407.454 688.673 25 25">
  <defs>
    <style>
      .cls-1 {
        fill: #9a9fbf;
        fill-rule: evenodd;
      }
    </style>
  </defs>
  <path id="Path_292" data-name="Path 292" class="cls-1" d="M24.219,13.282H23.4a11.109,11.109,0,0,1-2.574,6.291A10.742,10.742,0,0,1,13.281,23.4v.82a.781.781,0,1,1-1.562,0V23.4a11.094,11.094,0,0,1-6.963-3.2A10.7,10.7,0,0,1,1.6,13.282H.781a.782.782,0,0,1,0-1.563H1.6A10.937,10.937,0,0,1,11.719,1.6V.782a.781.781,0,1,1,1.562,0V1.6A10.937,10.937,0,0,1,23.4,11.719h.821a.782.782,0,0,1,0,1.563Zm-3.906-1.563h1.523a9.381,9.381,0,0,0-8.554-8.554V4.688a.781.781,0,1,1-1.562,0V3.165a9.381,9.381,0,0,0-8.554,8.554H4.688a.782.782,0,0,1,0,1.563H3.165a9.381,9.381,0,0,0,8.554,8.554V20.313a.781.781,0,1,1,1.562,0v1.523a9.381,9.381,0,0,0,8.554-8.554H20.312a.782.782,0,0,1,0-1.563ZM12.5,17.969a.781.781,0,0,1,0-1.563A3.911,3.911,0,0,0,16.406,12.5a.781.781,0,0,1,1.563,0A5.475,5.475,0,0,1,12.5,17.969Zm0-3.125A2.344,2.344,0,1,1,14.844,12.5,2.346,2.346,0,0,1,12.5,14.844Zm0-3.125a.782.782,0,1,0,.781.781A.783.783,0,0,0,12.5,11.719Zm0-3.125A3.911,3.911,0,0,0,8.594,12.5a.781.781,0,1,1-1.562,0A5.475,5.475,0,0,1,12.5,7.032a.781.781,0,1,1,0,1.562Z" transform="translate(1407.454 688.673)"/>
</svg>
