<svg xmlns="http://www.w3.org/2000/svg" viewBox="2417.838 769.445 26 27.555">
  <defs>
    <style>
      .cls-1 {
        fill: #9a9fbf;
        fill-rule: evenodd;
      }
    </style>
  </defs>
  <path id="Path_1552" data-name="Path 1552" class="cls-1" d="M472.786,207.166V189.944H454.214V210.61h14.857v3.444H454.214c-2.052,0-3.714-1.371-3.714-3.062V189.562c0-1.691,1.662-3.062,3.714-3.062h18.571c2.05,0,3.714,1.371,3.714,3.062v17.6Z" transform="translate(1967.338 582.945)"/>
  <path id="Path_1553" data-name="Path 1553" class="cls-1" d="M462.5,200.5h3.714v3.444H462.5Z" transform="translate(1977.624 593.056)"/>
  <path id="Path_1554" data-name="Path 1554" class="cls-1" d="M454.5,192.5h11.143v3.444H454.5Z" transform="translate(1970.767 587.278)"/>
   <path id="Path_1555" data-name="Path 1555" class="cls-1" d="M454.5,196.5h3.714v3.444H454.5Z" transform="translate(1970.767 590.166)"/>
    <path id="Path_1556" data-name="Path 1556" class="cls-1" d="M458.5,196.5h3.714v3.444H458.5Z" transform="translate(1974.195 590.166)"/>
     <path id="Path_1557" data-name="Path 1557" class="cls-1" d="M455.357,184.5a1.794,1.794,0,0,1,1.857,1.722v6.889a1.862,1.862,0,0,1-3.714,0v-6.889A1.794,1.794,0,0,1,455.357,184.5Z" transform="translate(1969.909 581.501)"/>
<path id="Path_1558" data-name="Path 1558" class="cls-1" d="M461.357,184.5a1.794,1.794,0,0,1,1.857,1.722v6.889a1.862,1.862,0,0,1-3.714,0v-6.889A1.794,1.794,0,0,1,461.357,184.5Z" transform="translate(1975.052 581.501)"/>
</svg>
