<svg xmlns="http://www.w3.org/2000/svg" viewBox="951 1402 20 19.999">
  <defs>
    <style>
      .cls-1 {
        fill: #ff5e3a;
        fill-rule: evenodd;
      }
    </style>
  </defs>
  <g id="Add_Fav_Page_Icon" data-name="Add Fav Page Icon" transform="translate(941.227 1392.335)">
    <path id="Path_887" data-name="Path 887" class="cls-1" d="M16,10a6,6,0,1,0-6,6A6,6,0,0,0,16,10ZM6,10a4,4,0,1,1,4,4A4,4,0,0,1,6,10ZM10,0A10,10,0,0,0,7,19.541V17.413a8,8,0,1,1,6,0v2.128A10,10,0,0,0,10,0ZM9,20h2V18H9Z" transform="translate(9.773 9.665)"/>
  </g>
</svg>
