<svg xmlns="http://www.w3.org/2000/svg" viewBox="2607.543 -957.275 21.457 18.155">
  <defs>
    <style>
      .cls-1 {
        fill: #888da8;
      }
    </style>
  </defs>
  <g id="folder_1_" data-name="folder (1)" transform="translate(2607.543 -993.75)">
    <path id="Path_1790" data-name="Path 1790" class="cls-1" d="M20.33,38.279H12.235a.683.683,0,0,1-.442-.162l-1.485-1.264a1.593,1.593,0,0,0-1.031-.378H3.957A1.121,1.121,0,0,0,2.83,37.587v1.487h-1.7A1.121,1.121,0,0,0,0,40.187V53.518A1.121,1.121,0,0,0,1.127,54.63H17.5a1.121,1.121,0,0,0,1.127-1.112V52.031h1.7a1.121,1.121,0,0,0,1.127-1.112V39.391A1.121,1.121,0,0,0,20.33,38.279Zm-2.6,15.239a.224.224,0,0,1-.226.223H1.127A.224.224,0,0,1,.9,53.518V44.371H17.726v9.147Zm0-10.037H.9V40.187a.224.224,0,0,1,.226-.223h5.32a.682.682,0,0,1,.442.162L8.374,41.39a1.592,1.592,0,0,0,1.031.378H17.5a.224.224,0,0,1,.226.223Zm2.83,7.438a.224.224,0,0,1-.226.223h-1.7V41.991A1.121,1.121,0,0,0,17.5,40.878H9.405a.682.682,0,0,1-.442-.162L7.478,39.452a1.592,1.592,0,0,0-1.031-.378H3.732V37.587a.224.224,0,0,1,.226-.223h5.32a.683.683,0,0,1,.442.162L11.2,38.791a1.593,1.593,0,0,0,1.031.378H20.33a.224.224,0,0,1,.226.223V50.919Z"/>
    <path id="Path_1791" data-name="Path 1791" class="cls-1" d="M169.623,285.687h-1.484v-1.464a.451.451,0,0,0-.9,0v1.464h-1.484a.445.445,0,1,0,0,.89h1.484v1.464a.451.451,0,0,0,.9,0v-1.464h1.484a.445.445,0,1,0,0-.89Z" transform="translate(-158.374 -237.077)"/>
  </g>
</svg>
