<svg xmlns="http://www.w3.org/2000/svg" width="28" hight="23" viewBox="3102 8850 28 22.517">
  <defs>
    <style>
      .cls-1 {
        fill: #9a9fbf;
      }

      .cls-1, .cls-2 {
        fill-rule: evenodd;
      }

      .cls-2 {
        fill: none;
        stroke: #9a9fbf;
        stroke-width: 2px;
      }
    </style>
  </defs>
  <g id="Group_177" data-name="Group 177" transform="translate(3103 8850)">
    <path id="Path_959" data-name="Path 959" class="cls-1" d="M16,18V7H2v9H3v2H2a2.284,2.284,0,0,1-2-2V7A2.283,2.283,0,0,1,2,5H16a2.283,2.283,0,0,1,2,2v9A2.284,2.284,0,0,1,16,18Z"/>
    <path id="Path_960" data-name="Path 960" class="cls-2" d="M16.363,18.008H9.981L3,21V18.008H1.636A1.677,1.677,0,0,1,0,16.292V7.715A1.677,1.677,0,0,1,1.636,6H16.363A1.678,1.678,0,0,1,18,7.715v8.577A1.678,1.678,0,0,1,16.363,18.008Z"/>
    <path id="Path_961" data-name="Path 961" class="cls-1" d="M12,16h2v2H12Z"/>
    <path id="Path_962" data-name="Path 962" class="cls-1" d="M4,9H14v2H4Z"/>
    <path id="Path_963" data-name="Path 963" class="cls-1" d="M4,12h6v2H4Z"/>
    <path id="Path_964" data-name="Path 964" class="cls-1" d="M24,13H23V11h1V8h2v3A2.284,2.284,0,0,1,24,13ZM23,2H10V13a2.284,2.284,0,0,1-2-2V2a2.283,2.283,0,0,1,2-2H24a2.283,2.283,0,0,1,2,2H23Z"/>
    <path id="Path_965" data-name="Path 965" class="cls-2" d="M24.364,13.008H23V16l-6.981-2.992H9.636A1.678,1.678,0,0,1,8,11.292V2.715A1.677,1.677,0,0,1,9.636,1H24.364A1.677,1.677,0,0,1,26,2.715v8.577A1.678,1.678,0,0,1,24.364,13.008Z"/>
    <path id="Path_966" data-name="Path 966" class="cls-1" d="M26,4H24V6h2Z"/>
  </g>
</svg>
