<svg xmlns="http://www.w3.org/2000/svg" viewBox="2380 505.988 16.553 15">
  <defs>
    <style>
      .cls-1 {
        fill: #9a9fbf;
        fill-rule: evenodd;
      }
    </style>
  </defs>
  <path id="Path_2394" data-name="Path 2394" class="cls-1" d="M15,15H1.552A1.486,1.486,0,0,1,0,13.594V4.281A1.486,1.486,0,0,1,1.552,2.875h1.3L4.746.259A.526.526,0,0,1,5.209,0h6.136a.526.526,0,0,1,.463.259L13.7,2.875H15a1.486,1.486,0,0,1,1.552,1.406v9.313A1.486,1.486,0,0,1,15,15ZM1.035,10.781H4.113a3.823,3.823,0,0,1,0-3.75H1.035Zm14.484-6.5A.5.5,0,0,0,15,3.813H13.378a.524.524,0,0,1-.462-.259L11.025.938h-5.5L3.638,3.553a.524.524,0,0,1-.462.259H1.552a.5.5,0,0,0-.517.469V6.094H4.656a.546.546,0,0,1,.136.025A4.857,4.857,0,0,1,8.277,4.688a4.857,4.857,0,0,1,3.485,1.431.546.546,0,0,1,.136-.025h3.621ZM4.656,8.906a3.468,3.468,0,0,0,3.621,3.281A3.468,3.468,0,0,0,11.9,8.906,3.468,3.468,0,0,0,8.277,5.625,3.468,3.468,0,0,0,4.656,8.906ZM15.519,7.031H12.441a3.823,3.823,0,0,1,0,3.75h3.078Zm0,4.688H11.9a.546.546,0,0,1-.136-.025,4.959,4.959,0,0,1-6.97,0,.546.546,0,0,1-.136.025H1.035v1.875a.5.5,0,0,0,.517.469H15a.5.5,0,0,0,.517-.469ZM8.277,6.563a2.477,2.477,0,0,1,2.586,2.344.52.52,0,0,1-1.035,0A1.486,1.486,0,0,0,8.277,7.5a.471.471,0,1,1,0-.938Z" transform="translate(2380 505.988)"/>
</svg>
