<svg xmlns="http://www.w3.org/2000/svg" width="25" height="25" viewBox="920.667 209.655 25 25">
  <defs>
    <style>
      .cls-1 {
        fill: #fff;
        fill-rule: evenodd;
      }
    </style>
  </defs>
  <path id="Path_287" data-name="Path 287" class="cls-1" d="M22.656,25H2.344A2.347,2.347,0,0,1,0,22.656V5.469A2.347,2.347,0,0,1,2.344,3.125H7.33L8.676.432A.782.782,0,0,1,9.375,0h6.25a.782.782,0,0,1,.7.432L17.67,3.125h4.986A2.347,2.347,0,0,1,25,5.469V22.656A2.347,2.347,0,0,1,22.656,25ZM1.563,17.969H6.211a6.95,6.95,0,0,1,0-6.25H1.563Zm21.875-12.5a.783.783,0,0,0-.781-.781H17.188a.78.78,0,0,1-.7-.432L15.142,1.563H9.858L8.511,4.255a.78.78,0,0,1-.7.432H2.344a.783.783,0,0,0-.781.781v4.688H7.031a.756.756,0,0,1,.205.041,7,7,0,0,1,10.527,0,.756.756,0,0,1,.205-.041h5.469ZM7.031,14.844A5.469,5.469,0,1,0,12.5,9.375,5.475,5.475,0,0,0,7.031,14.844Zm16.406-3.125H18.789a6.95,6.95,0,0,1,0,6.25h4.648Zm0,7.813H17.969a.756.756,0,0,1-.205-.041,7,7,0,0,1-10.527,0,.756.756,0,0,1-.205.041H1.563v3.125a.783.783,0,0,0,.781.781H22.656a.783.783,0,0,0,.781-.781ZM12.5,10.938a3.911,3.911,0,0,1,3.906,3.906.781.781,0,1,1-1.562,0A2.347,2.347,0,0,0,12.5,12.5a.781.781,0,0,1,0-1.562Z" transform="translate(920.667 209.655)"/>
</svg>
