<svg xmlns="http://www.w3.org/2000/svg" width="12" height="12" viewBox="4432.081 -646.368 12 12">
  <defs>
    <style>
      .cls-1 {
        fill-rule: evenodd;
      }
    </style>
  </defs>
  <path id="Path_1777" data-name="Path 1777" class="cls-1" d="M12.591,12.593a.336.336,0,0,1-.424.042L8.3,10.067,6.822,11.542a.885.885,0,0,1-.627.26l-.072,0a.887.887,0,0,1-.649-.367,4.273,4.273,0,0,1-.736-3.213L2.67,6.152l-.04.04a.888.888,0,0,1-1.255,0L.949,5.766a.888.888,0,0,1,0-1.255L4.508.951a.888.888,0,0,1,1.255,0l.426.426a.888.888,0,0,1,0,1.255l-.04.041L8.215,4.74a4.273,4.273,0,0,1,3.213.736.888.888,0,0,1,.11,1.349L10.064,8.3l2.569,3.87A.337.337,0,0,1,12.591,12.593ZM11.063,6.349a.214.214,0,0,0-.027-.326,3.6,3.6,0,0,0-2.86-.589.337.337,0,0,1-.309-.091L5.434,2.911a.337.337,0,0,1,0-.476l.278-.278a.214.214,0,0,0,0-.3l-.426-.426a.214.214,0,0,0-.3,0L1.425,4.987a.214.214,0,0,0,0,.3l.426.426a.214.214,0,0,0,.3,0l.278-.278h0L4.112,3.758a.337.337,0,0,1,.476.476L3.146,5.676,5.339,7.869a.337.337,0,0,1,.091.309,3.6,3.6,0,0,0,.589,2.861.215.215,0,0,0,.326.027L8.015,9.4l0,0L9.392,8.02l0,0ZM9.579,8.785l-.8.8,2.369,1.572Zm-1.131-2.1A.337.337,0,0,1,8.3,6.031a3.007,3.007,0,0,1,1.457.046.337.337,0,1,1-.184.647A2.332,2.332,0,0,0,8.448,6.689Z" transform="translate(4431.391 -647.06)"/>
</svg>
