<svg xmlns="http://www.w3.org/2000/svg" viewBox="1280 749 15 15">
  <defs>
    <style>
      .cls-1 {
        fill: #9a9fbf;
        fill-rule: evenodd;
      }
    </style>
  </defs>
  <path id="Path_1500" data-name="Path 1500" class="cls-1" d="M13.594,15.283H1.407A1.457,1.457,0,0,1,0,13.783v-12A1.457,1.457,0,0,1,1.407.283h9.844a.908.908,0,0,1,.663.293l2.813,3A1.036,1.036,0,0,1,15,4.283v9.5A1.457,1.457,0,0,1,13.594,15.283Zm-2.343-14v2h0a.971.971,0,0,0,.938,1h1.875Zm2.812,3.5H12.188a1.455,1.455,0,0,1-1.406-1.5h0v-2H1.407a.485.485,0,0,0-.469.5v12a.485.485,0,0,0,.469.5H13.594a.485.485,0,0,0,.469-.5Zm-1.172,8H2.11a.25.25,0,0,1,0-.5H12.891a.25.25,0,0,1,0,.5Zm0-1.5H2.11a.251.251,0,0,1,0-.5H12.891a.251.251,0,0,1,0,.5Zm0-1.5H2.11a.25.25,0,0,1,0-.5H12.891a.25.25,0,0,1,0,.5Zm0-1.5H2.11a.25.25,0,0,1,0-.5H12.891a.25.25,0,0,1,0,.5Zm0-1.5H7.267a.25.25,0,0,1,0-.5h5.625a.25.25,0,0,1,0,.5ZM9.61,5.283H7.267a.251.251,0,0,1,0-.5H9.61a.251.251,0,0,1,0,.5Zm0-1.5H7.267a.25.25,0,0,1,0-.5H9.61a.25.25,0,0,1,0,.5Zm-3.984,3H2.345a.485.485,0,0,1-.469-.5v-3a.485.485,0,0,1,.469-.5H5.626a.485.485,0,0,1,.469.5v3A.485.485,0,0,1,5.626,6.783Zm-.469-3H2.813v2H5.157Z" transform="translate(1279.999 748.717)"/>
</svg>
