<svg xmlns="http://www.w3.org/2000/svg" viewBox="2434.796 -956.453 20.204 16.658">
  <defs>
    <style>
      .cls-1 {
        fill: #888da8;
      }
    </style>
  </defs>
  <g id="monitor" transform="translate(2429.28 -982.4)">
    <path id="Path_1794" data-name="Path 1794" class="cls-1" d="M18.984,27.937H1.22A1.178,1.178,0,0,0,0,29.066V40.417a1.178,1.178,0,0,0,1.22,1.129H7.307v.821a1.425,1.425,0,0,1-1.475,1.366H4.49a.432.432,0,1,0,0,.862H15.714a.432.432,0,1,0,0-.862H14.372A1.425,1.425,0,0,1,12.9,42.367v-.821h6.087a1.178,1.178,0,0,0,1.22-1.129V29.066A1.178,1.178,0,0,0,18.984,27.937ZM7.731,43.733a2.113,2.113,0,0,0,.507-1.366v-.821h3.727v.821a2.113,2.113,0,0,0,.507,1.366Zm11.541-3.316a.278.278,0,0,1-.288.267H1.22a.278.278,0,0,1-.288-.267V38.152H19.272Zm0-3.128H.932V29.066A.278.278,0,0,1,1.22,28.8H18.984a.278.278,0,0,1,.288.267V37.29Z" transform="translate(5.516 -1.991)"/>
    <ellipse id="Ellipse_6" data-name="Ellipse 6" class="cls-1" cx="0.503" cy="0.465" rx="0.503" ry="0.465" transform="translate(15.115 36.962)"/>
    <path id="Path_1795" data-name="Path 1795" class="cls-1" d="M176.761,105.924a.493.493,0,0,0-.659,0l-3.292,3.046a.409.409,0,0,0,0,.61.493.493,0,0,0,.659,0l3.292-3.046A.409.409,0,0,0,176.761,105.924Z" transform="translate(-160.345 -77.008)"/>
    <path id="Path_1796" data-name="Path 1796" class="cls-1" d="M274.406,154.262a.493.493,0,0,0-.659,0l-1.311,1.214a.409.409,0,0,0,0,.61.493.493,0,0,0,.659,0l1.311-1.214A.409.409,0,0,0,274.406,154.262Z" transform="translate(-256.038 -123.581)"/>
  </g>
</svg>
