<svg xmlns="http://www.w3.org/2000/svg" viewBox="1286.066 1350.981 25 25">
  <defs>
    <style>
      .cls-1 {
        fill: #6da2fe;
        fill-rule: evenodd;
      }

      .cls-2 {
        fill: #fff;
      }
    </style>
  </defs>
  <g id="Group_192" data-name="Group 192" transform="translate(1206.706 1140.386)">
    <path id="Path_53" data-name="Path 53" class="cls-1" d="M155,315.5A12.5,12.5,0,1,1,142.5,328,12.5,12.5,0,0,1,155,315.5Z" transform="translate(-63.14 -104.905)"/>
    <path id="Path_149" data-name="Path 149" class="cls-2" d="M20.48,18.534H13.06c-.479,0-1.06.744-1.06,1.411V26.3c0,.668.581,1.411,1.06,1.411v2.116l4.24-2.116V26.3l-3.18,1.413V26.3H13.06V19.944h7.42v7.764c.479,0,1.06-.743,1.06-1.411V19.944C21.54,19.278,20.959,18.534,20.48,18.534Zm-2.12,9.175h1.06V26.3H18.36Zm-4.24-4.94h5.3V21.357h-5.3Zm0,2.117H17.3V23.474H14.12Zm3.18-8.469h8.48c0-.668-.581-1.412-1.06-1.412H17.3c-.479,0-1.06.744-1.06,1.412v.707H17.3Zm7.42,6.352H23.13V24.18l-1.06-.47v1.529L24.19,26.3V24.18h.53c.479,0,1.06-.743,1.06-1.411V20.652H24.72Zm0-3.529h1.06V17.828H24.72Z" transform="translate(72.762 200.262)"/>
  </g>
</svg>
