<svg xmlns="http://www.w3.org/2000/svg" width="12" hight="19" viewBox="58.977 119.033 12.01 19.255">
  <defs>
    <style>
      .cls-1 {
        fill: #fff;
      }
    </style>
  </defs>
  <g id="microphone-black-shape" transform="translate(58.977 119.033)">
    <path id="Path_1754" data-name="Path 1754" class="cls-1" d="M149.515,13.33a3.062,3.062,0,0,0,2.356-1.087,3.772,3.772,0,0,0,.98-2.615V3.7a3.771,3.771,0,0,0-.98-2.615,3.1,3.1,0,0,0-4.712,0,3.771,3.771,0,0,0-.98,2.615V9.628a3.772,3.772,0,0,0,.98,2.615A3.062,3.062,0,0,0,149.515,13.33Z" transform="translate(-143.51)"/>
    <path id="Path_1755" data-name="Path 1755" class="cls-1" d="M84.9,182.944a.61.61,0,0,0-.938,0,.752.752,0,0,0-.2.521v1.481a5.281,5.281,0,0,1-1.371,3.662,4.338,4.338,0,0,1-6.6,0,5.281,5.281,0,0,1-1.371-3.662v-1.481a.752.752,0,0,0-.2-.521.61.61,0,0,0-.938,0,.752.752,0,0,0-.2.521v1.481a6.84,6.84,0,0,0,1.538,4.449,5.653,5.653,0,0,0,3.8,2.169v1.528H75.756a.612.612,0,0,0-.469.22.783.783,0,0,0,0,1.041.612.612,0,0,0,.469.22h6.672a.612.612,0,0,0,.469-.22.783.783,0,0,0,0-1.041.611.611,0,0,0-.469-.22H79.759v-1.528a5.654,5.654,0,0,0,3.8-2.169,6.84,6.84,0,0,0,1.538-4.449v-1.481A.752.752,0,0,0,84.9,182.944Z" transform="translate(-73.087 -175.318)"/>
  </g>
</svg>
