<svg xmlns="http://www.w3.org/2000/svg" width="17" hight="16" viewBox="118.388 120.381 17.197 16.176">
  <defs>
    <style>
      .cls-1 {
        fill: #fff;
        fill-rule: evenodd;
      }
    </style>
  </defs>
  <path id="Path_1753" data-name="Path 1753" class="cls-1" d="M17.165,14.3c0,.022-.015.716-.021.738a1.43,1.43,0,0,1-.073.221c-.007.016-.018.03-.025.045a1.52,1.52,0,0,1-.124.214c-.008.011-.019.02-.026.03a1.571,1.571,0,0,1-.17.195c-.025.023-.053.039-.079.061a1.633,1.633,0,0,1-.166.127,1.365,1.365,0,0,1-.133.068c-.048.025-.1.053-.146.073s-.087.025-.13.037a1.671,1.671,0,0,1-.175.049c-.041.007-.083.007-.124.012a1.005,1.005,0,0,1-.376,0c-.041,0-.083,0-.124-.012a1.8,1.8,0,0,1-.175-.049c-.043-.013-.087-.022-.129-.038A1.624,1.624,0,0,1,14.823,16a1.487,1.487,0,0,1-.133-.068,1.661,1.661,0,0,1-.167-.127c-.025-.021-.054-.038-.078-.061L11.87,13.391a6.55,6.55,0,0,1-5.421,2.793,6.639,6.639,0,0,1-4.393-1.638A2.6,2.6,0,0,1,.814,16.113a.566.566,0,0,1-.276.072.544.544,0,0,1-.461-.245.489.489,0,0,1,.184-.694,1.525,1.525,0,0,0,.6-2.115A5.754,5.754,0,0,1,0,10.115a5.994,5.994,0,0,1,3.018-5.13L1.77,3.811c-.012-.012-.017-.028-.029-.041a1.142,1.142,0,0,1-.286.041,1.1,1.1,0,0,1-.76-.3l-.38-.357a.97.97,0,0,1,0-1.432L1.835.3a1.15,1.15,0,0,1,1.52,0l.38.358a.973.973,0,0,1,.315.716.937.937,0,0,1-.043.268.264.264,0,0,1,.037.022l2.635,2.4A6.532,6.532,0,0,1,11.87,6.84l2.581-2.354a1.517,1.517,0,0,1,.163-.126c.025-.018.046-.039.073-.056A1.551,1.551,0,0,1,14.9,4.2c.023-.011.044-.024.068-.033a1.553,1.553,0,0,1,.213-.062c.031-.008.06-.019.09-.025a1.747,1.747,0,0,1,.271-.026c.015,0,.03,0,.046,0s.03,0,.045,0a1.769,1.769,0,0,1,.269.025,1.461,1.461,0,0,1,.16.045c.048.014.1.024.143.041s.1.047.145.072a1.5,1.5,0,0,1,.134.069,1.587,1.587,0,0,1,.166.127c.026.021.054.037.078.06a1.571,1.571,0,0,1,.17.195c.008.011.019.02.026.03a1.545,1.545,0,0,1,.123.212c.008.017.019.031.026.047a1.448,1.448,0,0,1,.073.221c.006.022.016.042.021.065a1.487,1.487,0,0,1,.032.3v9.1C17.2,14.77,17.185,14.2,17.165,14.3ZM2.595,1.011,1.075,2.442l.379.356,1.52-1.43ZM3.356,2.44l-.761.716L4.019,4.5a6.667,6.667,0,0,1,1.223-.34ZM6.449,5.057a5.229,5.229,0,0,0-5.374,5.058,4.793,4.793,0,0,0,.657,2.421c.007.01.019.016.026.026s.017.039.028.058a5.44,5.44,0,0,0,4.663,2.553,5.229,5.229,0,0,0,5.374-5.058A5.229,5.229,0,0,0,6.449,5.057ZM13.973,6.33,12.4,7.769a5.731,5.731,0,0,1,0,4.693L13.973,13.9Zm2.15-.767a.48.48,0,0,0-.042-.2.506.506,0,0,0-.1-.144c-.008-.008-.015-.017-.024-.025a.544.544,0,0,0-.163-.1.563.563,0,0,0-.412,0,.544.544,0,0,0-.163.1.489.489,0,0,0-.168.364v9.1a.49.49,0,0,0,.155.355.707.707,0,0,0,.586.112.527.527,0,0,0,.168-.1c.008-.008.014-.016.021-.024a.506.506,0,0,0,.1-.144.477.477,0,0,0,.042-.2ZM9.1,12.642a.353.353,0,0,1-.451-.176l-.588-1.336a.7.7,0,0,1,.291-.661l1.419-.553a.353.353,0,0,1,.451.176A2.3,2.3,0,0,1,9.1,12.642Zm-.148-4.6-.006,0L7.527,8.6a.786.786,0,0,1-.7-.274L6.237,6.992a.318.318,0,0,1,.187-.424A2.618,2.618,0,0,1,9.1,7.551a.361.361,0,0,1,.041.069A.319.319,0,0,1,8.95,8.045Zm-2,1.877a.5.5,0,0,1-.291.661.549.549,0,0,1-.7-.274.5.5,0,0,1,.291-.661A.55.55,0,0,1,6.946,9.922Zm-.873,1.983.588,1.335a.319.319,0,0,1-.187.425,2.579,2.579,0,0,1-2.709-1.056.318.318,0,0,1,.186-.425l1.419-.553A.786.786,0,0,1,6.073,11.905ZM4.548,9.763l-1.419.553a.354.354,0,0,1-.451-.176A2.306,2.306,0,0,1,3.8,7.59a.354.354,0,0,1,.451.176L4.839,9.1A.7.7,0,0,1,4.548,9.763Z" transform="translate(118.388 120.372)"/>
</svg>
