<svg xmlns="http://www.w3.org/2000/svg" width="12" height="12" viewBox="4413.795 -646.172 12 12">
  <defs>
    <style>

    </style>
  </defs>
  <g id="white-board" transform="translate(4413.795 -661.687)">
    <path id="Path_1780" data-name="Path 1780" class="cls-1" d="M11.454,16.676H6.545V16.1a.547.547,0,1,0-1.091,0v.581H.545a.582.582,0,0,0,0,1.161H.727v6.774a.564.564,0,0,0,.545.581H5.455v1.161H4.182a.582.582,0,0,0,0,1.161H7.818a.582.582,0,0,0,0-1.161H6.545V25.192h4.182a.564.564,0,0,0,.545-.581V17.838h.182a.582.582,0,0,0,0-1.161Zm-1.273,7.355H1.818V17.838h8.364v6.194Z" transform="translate(0 0)"/>
  </g>
</svg>
