<svg xmlns="http://www.w3.org/2000/svg" viewBox="0 0 45.867 45.769">
  <defs>
    <style>
      .cls-1 {
        fill: #fff;
        fill-rule: evenodd;
      }
    </style>
  </defs>
  <path id="Path_1854" data-name="Path 1854" class="cls-1" d="M44.843.953A2.867,2.867,0,0,0,43,.282a2.663,2.663,0,0,0-.5.046L18.133,4.618a2.861,2.861,0,0,0-2.369,2.816V31.991a9.229,9.229,0,0,0-5.437-1.673,11.52,11.52,0,0,0-3.626.594A10.057,10.057,0,0,0,.717,35.9,6.812,6.812,0,0,0,.41,41.255c1.091,2.913,4.191,4.8,7.895,4.8a11.426,11.426,0,0,0,3.625-.6,10.049,10.049,0,0,0,5.984-4.978,7.128,7.128,0,0,0,.692-3.009h.024V14.585a2.923,2.923,0,0,0,.5-.043L43,10.338V27.7a9.242,9.242,0,0,0-5.441-1.673,11.52,11.52,0,0,0-3.625.6,10.04,10.04,0,0,0-5.983,4.984,6.8,6.8,0,0,0-.307,5.357c1.091,2.913,4.188,4.8,7.893,4.8a11.426,11.426,0,0,0,3.625-.6,10.035,10.035,0,0,0,5.984-4.978,7.085,7.085,0,0,0,.694-3.008h.024V3.142A2.855,2.855,0,0,0,44.843.953ZM11.019,42.743c-3.436,1.142-6.985.026-7.925-2.488S4.171,34.77,7.6,33.628s6.985-.029,7.925,2.488S14.454,41.6,11.019,42.743ZM38.2,38.453c-3.437,1.142-6.986.024-7.928-2.49s1.076-5.483,4.511-6.627,6.986-.027,7.926,2.49S41.637,37.31,38.2,38.453Zm4.74-31.019L18.573,11.725V7.434L42.943,3.142V7.434Z" transform="translate(0 -0.282)"/>
</svg>
