<svg xmlns="http://www.w3.org/2000/svg" viewBox="4653.85 -497.15 15.3 15.3">
  <defs>
    <style>
      .cls-1 {
        fill: #9a9fbf;
        stroke: #9a9fbf;
        stroke-width: 0.3px;
      }
    </style>
  </defs>
  <g id="cone" transform="translate(4613.039 -497)">
    <path id="Path_1829" data-name="Path 1829" class="cls-1" d="M55.578,12.191c0-.007,0-.013-.008-.02l-6.786-12a.389.389,0,0,0-.645,0l-6.786,12c0,.007-.005.013-.008.02a.949.949,0,0,0-.383.709c0,.634.811,1.173,2.347,1.56a22.07,22.07,0,0,0,5.153.54,22.07,22.07,0,0,0,5.153-.54c1.535-.387,2.347-.926,2.347-1.56A.949.949,0,0,0,55.578,12.191ZM48.461,1l5.99,10.592c-.25-.09-.528-.174-.836-.252a22.069,22.069,0,0,0-5.153-.54,22.07,22.07,0,0,0-5.153.54c-.309.078-.587.162-.836.252Zm4.948,12.886a21.22,21.22,0,0,1-4.948.515,21.22,21.22,0,0,1-4.948-.515c-1.356-.342-1.838-.744-1.838-.985s.481-.644,1.838-.985a21.22,21.22,0,0,1,4.948-.515,21.22,21.22,0,0,1,4.948.515c1.356.342,1.838.744,1.838.985S54.766,13.544,53.409,13.885Z"/>
  </g>
</svg>
