<svg xmlns="http://www.w3.org/2000/svg" viewBox="0 0 15.5 15.5">
  <defs>
    <style>
      .cls-1 {
        fill: #9a9fbf;
        stroke: #9a9fbf;
        stroke-width: 0.5px;
      }
    </style>
  </defs>
  <g id="cube" transform="translate(-15.75 0.25)">
    <path id="Path_1827" data-name="Path 1827" class="cls-1" d="M31,.307a.3.3,0,0,0-.006-.055l0-.011A.3.3,0,0,0,30.977.2L30.97.184l0-.011a.305.305,0,0,0-.018-.029l0-.007A.314.314,0,0,0,30.906.1L30.9.086a.331.331,0,0,0-.035-.027L30.848.051A.341.341,0,0,0,30.8.026l-.011,0a.352.352,0,0,0-.045-.013l-.017,0A.355.355,0,0,0,30.667,0H19.333a.354.354,0,0,0-.073.008l-.02.006a.34.34,0,0,0-.048.016l-.022.011a.33.33,0,0,0-.039.024l-.02.016a.322.322,0,0,0-.033.033l-.012.011-3,3.75-.005.008-.009.013a.3.3,0,0,0-.021.036l-.007.013A.3.3,0,0,0,16.008,4s0,.008,0,.011a.294.294,0,0,0,0,.046s0,.005,0,.008V14.688s0,0,0,.005a.3.3,0,0,0,.006.055l0,.011a.3.3,0,0,0,.014.042l.007.016,0,.011a.3.3,0,0,0,.018.029l0,.007a.314.314,0,0,0,.036.041l.011.009a.329.329,0,0,0,.035.027l.012.008a.338.338,0,0,0,.049.025l.011,0a.353.353,0,0,0,.045.013l.017,0a.351.351,0,0,0,.059.006H27.667a.354.354,0,0,0,.073-.008l.02-.006a.343.343,0,0,0,.048-.016l.022-.011a.33.33,0,0,0,.039-.024l.02-.016a.322.322,0,0,0,.033-.033l.012-.011,3-3.75.005-.008.009-.013a.3.3,0,0,0,.021-.036l.007-.013A.3.3,0,0,0,30.992,11s0-.008,0-.011a.29.29,0,0,0,0-.046s0-.005,0-.008V.313S31,.309,31,.307ZM19,1.25v2.5H17ZM16.667,4.375H19v6.458L16.667,13.75Zm10.667,10H17l2.5-3.125h7.833Zm0-3.75H19.667V4.375h7.667v6.25ZM27.5,3.75H19.667V.625H30Zm.5,10v-2.5h2Zm2.333-3.125H28V4.167L30.333,1.25Z"/>
  </g>
</svg>
