<svg xmlns="http://www.w3.org/2000/svg" viewBox="4621.85 -497.15 15.3 15.3">
  <defs>
    <style>
      .cls-1 {
        fill: #9a9fbf;
        stroke: #9a9fbf;
        stroke-width: 0.3px;
      }
    </style>
  </defs>
  <g id="cylinder" transform="translate(4516.588 -499.304)">
    <path id="Path_1828" data-name="Path 1828" class="cls-1" d="M112.912,0a32.284,32.284,0,0,0-5.087.356c-1.6.269-2.413.644-2.413,1.115V13.529c0,1.01,3.888,1.471,7.5,1.471A32.286,32.286,0,0,0,118,14.644c1.6-.269,2.413-.644,2.413-1.115V1.471C120.412.46,116.524,0,112.912,0Zm0,14.412c-4.289,0-6.5-.618-6.5-.882s2.211-.882,6.5-.882,6.5.618,6.5.882S117.2,14.412,112.912,14.412Zm6.5-1.667a24.3,24.3,0,0,0-6.5-.686,32.284,32.284,0,0,0-5.087.356,9.649,9.649,0,0,0-1.413.329V2.255a24.3,24.3,0,0,0,6.5.686A32.286,32.286,0,0,0,118,2.585a9.648,9.648,0,0,0,1.413-.329Zm-6.5-10.392c-4.289,0-6.5-.618-6.5-.882s2.211-.882,6.5-.882,6.5.618,6.5.882S117.2,2.353,112.912,2.353Z" transform="translate(0 2.304)"/>
  </g>
</svg>
