<svg xmlns="http://www.w3.org/2000/svg" viewBox="0 0 45.867 53.366">
  <defs>
    <style>
      .cls-1 {
        fill: #fff;
        fill-rule: evenodd;
      }
    </style>
  </defs>
  <path id="Path_1845" data-name="Path 1845" class="cls-1" d="M41.566,53.649H4.3c-2.372,0-4.3-2.394-4.3-5.336V5.619C0,2.677,1.929.283,4.3.283H34.4a2.617,2.617,0,0,1,2.027,1.041L45.028,12a4.038,4.038,0,0,1,.84,2.517v33.8C45.868,51.256,43.938,53.649,41.566,53.649ZM34.4,3.841v7.115h0c0,1.961,1.286,3.558,2.867,3.558H43ZM43,16.291H37.266c-2.376,0-4.3-2.388-4.3-5.336h0V3.841H4.3A1.633,1.633,0,0,0,2.868,5.619v42.7A1.633,1.633,0,0,0,4.3,50.092H41.566A1.633,1.633,0,0,0,43,48.314ZM39.416,44.754H6.451a.91.91,0,0,1,0-1.778H39.416a.909.909,0,0,1,0,1.778Zm0-5.336H6.451a.911.911,0,0,1,0-1.78H39.416a.91.91,0,0,1,0,1.78Zm0-5.337H6.451a.91.91,0,0,1,0-1.778H39.416a.909.909,0,0,1,0,1.778Zm0-5.337H6.451a.91.91,0,0,1,0-1.778H39.416a.909.909,0,0,1,0,1.778Zm0-5.337h-17.2a.91.91,0,0,1,0-1.778h17.2a.909.909,0,0,1,0,1.778ZM29.384,18.071H22.218a.911.911,0,0,1,0-1.78h7.167a.911.911,0,0,1,0,1.78Zm0-5.337H22.218a.815.815,0,0,1-.717-.888.816.816,0,0,1,.717-.89h7.167a.817.817,0,0,1,.717.89A.816.816,0,0,1,29.384,12.734ZM17.2,23.407H7.168a1.633,1.633,0,0,1-1.433-1.778V10.956a1.633,1.633,0,0,1,1.433-1.78H17.2a1.634,1.634,0,0,1,1.433,1.78V21.629A1.634,1.634,0,0,1,17.2,23.407ZM15.768,12.734H8.6v7.115h7.167Z" transform="translate(-0.001 -0.283)"/>
</svg>
