<svg xmlns="http://www.w3.org/2000/svg" viewBox="0 0 25 25">
  <defs>
    <style>
      .cls-1 {
        fill: #ff5e3a;
        fill-rule: evenodd;
      }
    </style>
  </defs>
  <path id="Path_1871" data-name="Path 1871" class="cls-1" d="M22.656,25.283H2.345A2.428,2.428,0,0,1,0,22.784v-20A2.428,2.428,0,0,1,2.345.283H18.751a1.514,1.514,0,0,1,1.1.488l4.688,5A1.726,1.726,0,0,1,25,6.949V22.784A2.428,2.428,0,0,1,22.656,25.283ZM18.751,1.95V5.283h0a1.619,1.619,0,0,0,1.563,1.667h3.125Zm4.687,5.833H20.313a2.425,2.425,0,0,1-2.344-2.5h0V1.95H2.345a.808.808,0,0,0-.781.833v20a.808.808,0,0,0,.781.833H22.656a.808.808,0,0,0,.781-.833ZM21.485,21.116H3.517a.417.417,0,0,1,0-.833H21.485a.417.417,0,0,1,0,.833Zm0-2.5H3.517a.418.418,0,0,1,0-.834H21.485a.418.418,0,0,1,0,.834Zm0-2.5H3.517a.417.417,0,0,1,0-.833H21.485a.417.417,0,0,1,0,.833Zm0-2.5H3.517a.417.417,0,0,1,0-.833H21.485a.417.417,0,0,1,0,.833Zm0-2.5H12.11a.417.417,0,0,1,0-.833h9.374a.417.417,0,0,1,0,.833Zm-5.468-2.5H12.11a.418.418,0,0,1,0-.834h3.906a.418.418,0,0,1,0,.834Zm0-2.5H12.11a.417.417,0,0,1,0-.833h3.906a.417.417,0,0,1,0,.833Zm-6.641,5H3.907a.808.808,0,0,1-.781-.833v-5a.808.808,0,0,1,.781-.834H9.376a.809.809,0,0,1,.781.834v5A.808.808,0,0,1,9.376,11.116Zm-.781-5H4.688V9.449H8.595Z" transform="translate(-0.001 -0.283)"/>
</svg>
