<svg xmlns="http://www.w3.org/2000/svg" viewBox="0 0 15 15">
  <defs>
    <style>
      .cls-1 {
        fill: #9a9fbf;
      }
    </style>
  </defs>
  <path id="Path_1816" data-name="Path 1816" class="cls-1" d="M43.189,14.158H36.1l7.259-7.552a.867.867,0,0,0,0-1.19L38.39.246a.788.788,0,0,0-1.144,0L29.3,8.508a2.6,2.6,0,0,0,0,3.572L31.7,14.568a1.379,1.379,0,0,0,1,.431H43.189a.421.421,0,0,0,0-.842Zm-10.492,0a.591.591,0,0,1-.429-.185l-2.392-2.489a1.734,1.734,0,0,1,0-2.381l1.3-1.351,4.269,4.442a.393.393,0,0,0,.572,0,.433.433,0,0,0,0-.6L31.748,7.157,37.817.841,42.785,6.01l-7.831,8.148Z" transform="translate(-28.594 0)"/>
</svg>
