<svg xmlns="http://www.w3.org/2000/svg" viewBox="4579 -537 15 15">
  <defs>
    <style>
      .cls-1 {
        fill: #9a9fbf;
      }
    </style>
  </defs>
  <g id="function-mathematical-symbol" transform="translate(4567.776 -537)">
    <path id="Path_1825" data-name="Path 1825" class="cls-1" d="M14.115,15a2.622,2.622,0,0,0,2.454-1.741l.01-.031c.529-1.847,1.372-4.774,2-6.9h2.235a.709.709,0,0,0,.761-.641.709.709,0,0,0-.761-.641H18.955c.2-.671.346-1.149.4-1.312l.064-.183c.236-.678.788-2.267,1.642-2.267.792,0,.91,1.028.915,1.077a.729.729,0,0,0,.817.587.686.686,0,0,0,.7-.688A2.416,2.416,0,0,0,21.064,0c-1.994,0-2.743,2.153-3.1,3.188l-.061.175c-.073.2-.265.836-.515,1.68H14.724a.709.709,0,0,0-.761.641.709.709,0,0,0,.761.641h2.285c-.781,2.669-1.791,6.19-1.9,6.578-.041.1-.353.815-.992.815-.974,0-1.4-1.152-1.4-1.161a.789.789,0,0,0-.942-.437.633.633,0,0,0-.519.794A3.074,3.074,0,0,0,14.115,15Z" transform="translate(0)"/>
    <path id="Path_1826" data-name="Path 1826" class="cls-1" d="M89.666,80.193a.745.745,0,0,0,.825-.7.808.808,0,0,0-.295-.576l-1.58-1.53,1.533-1.51a.742.742,0,0,0,.247-.517c0-.378-.366-.656-.837-.656a1.082,1.082,0,0,0-.778.388l-1.191,1.311L86.424,75.1a1.085,1.085,0,0,0-.837-.388.745.745,0,0,0-.825.7.808.808,0,0,0,.294.576l1.474,1.431L84.914,79.02a.7.7,0,0,0-.247.517c0,.378.366.656.837.656a1.082,1.082,0,0,0,.778-.388l1.273-1.41,1.273,1.41A1.085,1.085,0,0,0,89.666,80.193Z" transform="translate(-64.268 -66.846)"/>
  </g>
</svg>
