<svg id="list_1_" data-name="list (1)" xmlns="http://www.w3.org/2000/svg" viewBox="0 0 14.86 14.003">
  <defs>
    <style>
      .cls-1 {
        fill: #515365;
      }
    </style>
  </defs>
  <path id="Path_2626" data-name="Path 2626" class="cls-1" d="M.85,92.505a.772.772,0,0,1,.094-.388.287.287,0,0,1,.257-.152.325.325,0,0,1,.274.12.512.512,0,0,1,.091.319.8.8,0,0,1-.09.331,2.5,2.5,0,0,1-.294.433L.164,94.339v.5H2.336V94.27H1.158l-.007-.028.424-.509a7.191,7.191,0,0,0,.567-.753A1.1,1.1,0,0,0,2.3,92.4a1.023,1.023,0,0,0-.289-.769,1.11,1.11,0,0,0-.806-.281.991.991,0,0,0-.781.334,1.138,1.138,0,0,0-.284.811l0,.011H.85Z" transform="translate(-0.126 -86.109)"/>
  <path id="Path_2627" data-name="Path 2627" class="cls-1" d="M1.285,20h-.7v.635H2.754V20h-.7V17.136l-1.47.243v.576h.7Z" transform="translate(-0.545 -17.136)"/>
  <path id="Path_2628" data-name="Path 2628" class="cls-1" d="M1.727,166.769a.908.908,0,0,0,.354-.31.767.767,0,0,0,.132-.434.9.9,0,0,0-.306-.731,1.222,1.222,0,0,0-.816-.258,1.127,1.127,0,0,0-.747.257.821.821,0,0,0-.295.683l0,.027H.761a.259.259,0,0,1,.108-.245.382.382,0,0,1,.25-.1.339.339,0,0,1,.276.109.408.408,0,0,1,.095.274.483.483,0,0,1-.105.33.389.389,0,0,1-.3.123H.741v.565h.341a.469.469,0,0,1,.337.124.5.5,0,0,1,.119.372.421.421,0,0,1-.114.3.4.4,0,0,1-.306.12.411.411,0,0,1-.285-.129.363.363,0,0,1-.117-.3H.005l0,.031a.87.87,0,0,0,.32.749,1.228,1.228,0,0,0,.772.26,1.276,1.276,0,0,0,.842-.27.916.916,0,0,0,.329-.747.861.861,0,0,0-.142-.5.85.85,0,0,0-.394-.31Z" transform="translate(-0.001 -154.592)"/>
  <rect id="Rectangle_375" data-name="Rectangle 375" class="cls-1" width="11.564" height="2.33" transform="translate(3.296 10.421)"/>
  <rect id="Rectangle_376" data-name="Rectangle 376" class="cls-1" width="11.564" height="2.33" transform="translate(3.296 5.831)"/>
  <rect id="Rectangle_377" data-name="Rectangle 377" class="cls-1" width="11.564" height="2.33" transform="translate(3.296 1.101)"/>
</svg>
