<svg xmlns="http://www.w3.org/2000/svg" viewBox="0 0 25 25">
  <defs>
    <style>
      .cls-1 {
        fill: #ff5e3a;
        fill-rule: evenodd;
      }
    </style>
  </defs>
  <path id="Path_1852" data-name="Path 1852" class="cls-1" d="M24.442.649a1.561,1.561,0,0,0-1-.367,1.448,1.448,0,0,0-.272.025L9.884,2.65A1.562,1.562,0,0,0,8.592,4.188V17.6a5.023,5.023,0,0,0-2.963-.914,6.267,6.267,0,0,0-1.977.324A5.485,5.485,0,0,0,.391,19.735a3.728,3.728,0,0,0-.167,2.927,4.412,4.412,0,0,0,4.3,2.62A6.216,6.216,0,0,0,6.5,24.957a5.48,5.48,0,0,0,3.262-2.719,3.9,3.9,0,0,0,.377-1.644h.013V8.095a1.59,1.59,0,0,0,.272-.023l13.012-2.3v9.483a5.03,5.03,0,0,0-2.966-.914,6.267,6.267,0,0,0-1.976.325,5.475,5.475,0,0,0-3.261,2.722,3.723,3.723,0,0,0-.167,2.926,4.41,4.41,0,0,0,4.3,2.62,6.216,6.216,0,0,0,1.976-.325,5.473,5.473,0,0,0,3.262-2.719,3.877,3.877,0,0,0,.378-1.643H25V1.844A1.561,1.561,0,0,0,24.442.649ZM6.006,23.475c-1.873.624-3.807.014-4.32-1.359s.587-3,2.458-3.62,3.807-.016,4.32,1.359S7.878,22.851,6.006,23.475Zm14.816-2.343c-1.873.624-3.808.013-4.321-1.36s.587-3,2.459-3.62,3.808-.015,4.32,1.36S22.694,20.507,20.823,21.132ZM23.406,4.188,10.123,6.532V4.188L23.406,1.844V4.188Z" transform="translate(0 -0.282)"/>
</svg>
