<svg xmlns="http://www.w3.org/2000/svg" viewBox="0 0 15 15">
  <defs>
    <style>
      .cls-1 {
        fill: #515365;
        fill-rule: evenodd;
      }
    </style>
  </defs>
  <path id="Path_1840" data-name="Path 1840" class="cls-1" d="M14.665.5a.936.936,0,0,0-.6-.22A.869.869,0,0,0,13.9.3L5.93,1.7a.937.937,0,0,0-.775.923v8.048a3.014,3.014,0,0,0-1.778-.548,3.76,3.76,0,0,0-1.186.195A3.291,3.291,0,0,0,.234,11.954a2.237,2.237,0,0,0-.1,1.756,2.647,2.647,0,0,0,2.582,1.572,3.729,3.729,0,0,0,1.185-.2,3.288,3.288,0,0,0,1.957-1.631,2.34,2.34,0,0,0,.226-.986h.008V4.97a.954.954,0,0,0,.163-.014l7.807-1.378v5.69a3.018,3.018,0,0,0-1.779-.548,3.76,3.76,0,0,0-1.185.2,3.285,3.285,0,0,0-1.957,1.633,2.234,2.234,0,0,0-.1,1.756,2.646,2.646,0,0,0,2.581,1.572,3.729,3.729,0,0,0,1.185-.2,3.284,3.284,0,0,0,1.957-1.631,2.326,2.326,0,0,0,.227-.986H15V1.219A.937.937,0,0,0,14.665.5ZM3.6,14.2a2.016,2.016,0,0,1-2.592-.816c-.309-.825.352-1.8,1.475-2.172a2.015,2.015,0,0,1,2.592.816C5.387,12.851,4.727,13.824,3.6,14.2Zm8.89-1.406A2.017,2.017,0,0,1,9.9,11.976c-.308-.825.352-1.8,1.475-2.172a2.015,2.015,0,0,1,2.592.816C14.277,11.445,13.617,12.417,12.493,12.792Zm1.55-10.166L6.074,4.032V2.626l7.97-1.406V2.626Z" transform="translate(0 -0.282)"/>
</svg>
