<svg xmlns="http://www.w3.org/2000/svg" viewBox="0 0 15 15">
  <defs>
    <style>
      .cls-1 {
        fill: #6da2fe;
        fill-rule: evenodd;
      }
    </style>
  </defs>
  <path id="Path_1839" data-name="Path 1839" class="cls-1" d="M13.594,15H1.406A1.408,1.408,0,0,1,0,13.594V4.281A1.408,1.408,0,0,1,1.406,2.875H2.588L4.3.259A.469.469,0,0,1,4.72,0h5.56a.469.469,0,0,1,.42.259l1.713,2.616h1.182A1.408,1.408,0,0,1,15,4.281v9.312A1.408,1.408,0,0,1,13.594,15ZM.938,10.781H3.727a4.17,4.17,0,0,1,0-3.75H.938Zm13.125-6.5a.47.47,0,0,0-.469-.469H12.122a.468.468,0,0,1-.419-.259L9.99.938H5.01L3.3,3.553a.468.468,0,0,1-.419.259H1.406a.47.47,0,0,0-.469.469V6.094H4.219a.454.454,0,0,1,.123.025,4.2,4.2,0,0,1,6.316,0,.454.454,0,0,1,.123-.025h3.281ZM4.219,8.906A3.281,3.281,0,1,0,7.5,5.625,3.285,3.285,0,0,0,4.219,8.906Zm9.844-1.875H11.273a4.17,4.17,0,0,1,0,3.75h2.789Zm0,4.687H10.781a.454.454,0,0,1-.123-.025,4.2,4.2,0,0,1-6.316,0,.454.454,0,0,1-.123.025H.938v1.875a.47.47,0,0,0,.469.469H13.594a.47.47,0,0,0,.469-.469ZM7.5,6.563A2.346,2.346,0,0,1,9.844,8.906a.469.469,0,1,1-.937,0A1.408,1.408,0,0,0,7.5,7.5a.469.469,0,0,1,0-.937Z"/>
</svg>
