<svg xmlns="http://www.w3.org/2000/svg" viewBox="0 0 47.551 41.337">
  <defs>
    <style>
      .cls-1 {
        fill: #fff;
        fill-rule: evenodd;
      }
    </style>
  </defs>
  <path id="Path_1847" data-name="Path 1847" class="cls-1" d="M43.093,41.337H4.458A4.2,4.2,0,0,1,0,37.462V11.8A4.2,4.2,0,0,1,4.458,7.923H8.2L13.633.714A1.525,1.525,0,0,1,14.963,0H32.588a1.525,1.525,0,0,1,1.33.714l5.429,7.209h3.746A4.2,4.2,0,0,1,47.551,11.8V37.462A4.2,4.2,0,0,1,43.093,41.337ZM2.972,29.711h8.841a10.162,10.162,0,0,1,0-10.334H2.972ZM44.579,11.8a1.4,1.4,0,0,0-1.486-1.292H38.428A1.52,1.52,0,0,1,37.1,9.792L31.67,2.584H15.881l-5.43,7.209a1.52,1.52,0,0,1-1.328.714H4.458A1.4,1.4,0,0,0,2.972,11.8v4.995h10.4a1.629,1.629,0,0,1,.391.068,14.255,14.255,0,0,1,10.011-3.944,14.255,14.255,0,0,1,10.011,3.944,1.629,1.629,0,0,1,.391-.068h10.4ZM13.374,24.544c0,4.986,4.666,9.042,10.4,9.042s10.4-4.056,10.4-9.042S29.511,15.5,23.775,15.5,13.374,19.557,13.374,24.544Zm31.205-5.167H35.737a10.162,10.162,0,0,1,0,10.334h8.841Zm0,12.918h-10.4a1.629,1.629,0,0,1-.391-.068A14.261,14.261,0,0,1,23.775,36.17a14.261,14.261,0,0,1-10.011-3.944,1.629,1.629,0,0,1-.391.068H2.972v5.167a1.4,1.4,0,0,0,1.486,1.292H43.093a1.4,1.4,0,0,0,1.486-1.292Zm-20.8-14.21c4.1,0,7.43,2.9,7.43,6.459a1.5,1.5,0,0,1-2.972,0,4.2,4.2,0,0,0-4.458-3.875,1.4,1.4,0,0,1-1.486-1.292A1.4,1.4,0,0,1,23.775,18.085Z"/>
</svg>
