<svg xmlns="http://www.w3.org/2000/svg" viewBox="0 0 15 7.93">
  <defs>
    <style>
      .cls-1 {
        fill: #9a9fbf;
      }
    </style>
  </defs>
  <g id="right-arrow" transform="translate(0 -69.678)">
    <path id="XMLID_92_" class="cls-1" d="M9.631,77.608a2.006,2.006,0,0,1-.589-.087,1.188,1.188,0,0,1-.95-1.049v-.856l-6.845-.508C.536,75.055,0,74.617,0,74.089V73.2c0-.528.536-.966,1.247-1.018l6.845-.509v-.856a1.189,1.189,0,0,1,.95-1.049,1.973,1.973,0,0,1,1.678.247l3.83,2.829a.941.941,0,0,1,0,1.606l-3.831,2.83A1.864,1.864,0,0,1,9.631,77.608ZM1.667,73.9l7.342.546c.426.032.75.3.75.613v1.184l3.521-2.6-3.521-2.6v1.184c0,.316-.324.581-.75.613l-7.342.546Z"/>
  </g>
</svg>
