<svg xmlns="http://www.w3.org/2000/svg" viewBox="4578.85 -458.15 15.3 17.4">
  <defs>
    <style>
      .cls-1, .cls-2, .cls-3 {
        fill: #9a9fbf;
      }

      .cls-1, .cls-2 {
        stroke: #9a9fbf;
      }

      .cls-1 {
        stroke-width: 0.3px;
      }

      .cls-2 {
        stroke-width: 0.5px;
      }
    </style>
  </defs>
  <g id="trash" transform="translate(4572.5 -447)">
    <path id="Path_1819" data-name="Path 1819" class="cls-1" d="M20.188,1.729H15.8A2.188,2.188,0,0,0,15.232.371,1.38,1.38,0,0,0,14.25,0H11.125a1.38,1.38,0,0,0-.983.371,2.188,2.188,0,0,0-.567,1.357H5.812a.3.3,0,0,0-.312.288.3.3,0,0,0,.312.288H20.188a.3.3,0,0,0,.312-.288A.3.3,0,0,0,20.188,1.729Zm-9.6-.956a.741.741,0,0,1,.534-.2H14.25a.741.741,0,0,1,.534.2,1.619,1.619,0,0,1,.387.956H10.2A1.62,1.62,0,0,1,10.591.772Z" transform="translate(1 -11)"/>
    <path id="Path_1820" data-name="Path 1820" class="cls-2" d="M9.2,22.684a1.45,1.45,0,0,0,1.534,1.435h8.835A1.448,1.448,0,0,0,21.1,22.69L21.671,10H8.624ZM21.02,10.576l-.546,12.1a.86.86,0,0,1-.909.87H10.73a.87.87,0,0,1-.909-.877l-.546-12.09Z" transform="translate(-1.148 -18.119)"/>
    <path id="Path_1821" data-name="Path 1821" class="cls-3" d="M16.813,52.576h7.5a.289.289,0,1,0,0-.576h-7.5a.289.289,0,1,0,0,.576Z" transform="translate(-6.562 -48.017)"/>
    <path id="Path_1822" data-name="Path 1822" class="cls-3" d="M16.813,47.576h7.5a.289.289,0,1,0,0-.576h-7.5a.289.289,0,1,0,0,.576Z" transform="translate(-6.562 -44.458)"/>
    <path id="Path_1823" data-name="Path 1823" class="cls-3" d="M16.813,42.576h7.5a.289.289,0,1,0,0-.576h-7.5a.289.289,0,1,0,0,.576Z" transform="translate(-6.562 -40.898)"/>
  </g>
</svg>
