<svg xmlns="http://www.w3.org/2000/svg" viewBox="0 0 15 15">
  <defs>
    <style>
      .cls-1 {
        fill: #9a9fbf;
      }
    </style>
  </defs>
  <path id="Path_1812" data-name="Path 1812" class="cls-1" d="M49.965,0H37.155a1.029,1.029,0,0,0-1.084.969V4.615a1.028,1.028,0,0,0,1.084.969h1.906a1.029,1.029,0,0,0,1.084-.969V3.624h1.365v7.689H40a1,1,0,0,0-1.036.927v1.812A1,1,0,0,0,40,14.979h1.836a1.086,1.086,0,0,0,.118.021h3.2c.048,0,.07,0,.094-.021h1.79a1,1,0,0,0,1.036-.927V12.261a1,1,0,0,0-1.036-.927H45.583V3.646H47v.991a1.028,1.028,0,0,0,1.084.969h1.908a1.029,1.029,0,0,0,1.084-.969V.969A1.079,1.079,0,0,0,49.965,0Zm.212,4.635a.2.2,0,0,1-.211.189H48.057a.2.2,0,0,1-.212-.189V3.265a.4.4,0,0,0-.423-.378H45.138a.4.4,0,0,0-.423.378v8.469a.4.4,0,0,0,.423.378h1.908a.154.154,0,0,1,.166.148v1.791a.154.154,0,0,1-.166.148H45.138a.23.23,0,0,0-.118.021H42.052a1.088,1.088,0,0,0-.118-.021H39.981a.154.154,0,0,1-.166-.148V12.261a.154.154,0,0,1,.166-.148h1.954a.4.4,0,0,0,.423-.378V3.246a.4.4,0,0,0-.423-.378H39.7a.4.4,0,0,0-.423.378V4.615a.2.2,0,0,1-.212.189H37.155a.2.2,0,0,1-.212-.189V.971a.2.2,0,0,1,.212-.189H49.965a.2.2,0,0,1,.211.189V4.635Z" transform="translate(-36.071)"/>
</svg>
