<svg xmlns="http://www.w3.org/2000/svg" viewBox="0 0 25 25">
  <defs>
    <style>
      .cls-1 {
        fill: #ff5e3a;
        fill-rule: evenodd;
      }
    </style>
  </defs>
  <path id="Path_1851" data-name="Path 1851" class="cls-1" d="M24.953,23.132c-.007.034-.022.066-.03.1a2.31,2.31,0,0,1-.106.342c-.01.025-.027.046-.037.07a2.391,2.391,0,0,1-.18.331c-.011.016-.027.03-.038.047a2.39,2.39,0,0,1-.248.3c-.036.036-.077.061-.115.094a2.4,2.4,0,0,1-.241.2,1.943,1.943,0,0,1-.194.106,2.4,2.4,0,0,1-.212.113c-.062.025-.126.039-.188.058a2.318,2.318,0,0,1-.254.076c-.059.011-.12.011-.18.018a1.376,1.376,0,0,1-.546,0c-.06-.007-.12-.007-.18-.018a2.5,2.5,0,0,1-.254-.075c-.062-.02-.127-.034-.187-.059a2.307,2.307,0,0,1-.213-.113,2.116,2.116,0,0,1-.194-.106,2.436,2.436,0,0,1-.242-.2c-.037-.033-.078-.059-.113-.094l-3.744-3.63A9.337,9.337,0,0,1,2.989,22.477,3.987,3.987,0,0,1,1.184,24.9a.782.782,0,0,1-.8-1.341,2.437,2.437,0,0,0,.871-3.269A9.342,9.342,0,0,1,4.387,7.7L2.573,5.885c-.018-.019-.025-.043-.042-.063a1.568,1.568,0,0,1-.416.063,1.555,1.555,0,0,1-1.1-.458L.458,4.875a1.564,1.564,0,0,1,0-2.213L2.667.452a1.6,1.6,0,0,1,2.209,0L5.429,1a1.549,1.549,0,0,1,.458,1.107,1.533,1.533,0,0,1-.062.414.379.379,0,0,1,.053.034L9.709,6.265a9.362,9.362,0,0,1,7.547,4.3l3.752-3.639a2.226,2.226,0,0,1,.238-.195c.036-.027.067-.06.105-.086a2.208,2.208,0,0,1,.3-.165c.034-.016.064-.038.1-.052a2.156,2.156,0,0,1,.31-.1c.045-.013.087-.03.131-.039a2.394,2.394,0,0,1,.395-.04c.022,0,.044-.007.066-.007s.044.006.066.007a2.423,2.423,0,0,1,.391.039,2.027,2.027,0,0,1,.232.07c.07.021.14.037.208.064s.141.073.211.111a2.136,2.136,0,0,1,.195.106,2.329,2.329,0,0,1,.241.2c.037.033.078.057.114.093a2.391,2.391,0,0,1,.248.3c.011.016.027.03.038.047a2.43,2.43,0,0,1,.179.328c.012.026.027.048.038.073a2.339,2.339,0,0,1,.106.342c.009.034.023.066.03.1A2.438,2.438,0,0,1,25,8.593V22.664A2.447,2.447,0,0,1,24.953,23.132ZM3.772,1.558,1.562,3.77l.552.55,2.21-2.21ZM4.878,3.767,3.772,4.874l2.07,2.072a9.247,9.247,0,0,1,1.777-.526Zm4.5,4.045A7.814,7.814,0,0,0,2.518,19.37c.01.016.027.024.037.041s.025.06.041.09A7.811,7.811,0,1,0,9.375,7.811ZM20.312,9.778,18.019,12a9.369,9.369,0,0,1,0,7.254l2.293,2.224Zm3.125-1.185a.742.742,0,0,0-.209-.524c-.012-.013-.022-.027-.035-.039a.766.766,0,0,0-1.073,0,.776.776,0,0,0-.245.563V22.664a.855.855,0,0,0,1.078.722.761.761,0,0,0,.244-.161c.012-.012.02-.024.031-.037a.742.742,0,0,0,.209-.524ZM13.226,19.534a.5.5,0,0,1-.656-.271L11.716,17.2a1.113,1.113,0,0,1,.423-1.022l2.063-.854a.5.5,0,0,1,.655.272A3.651,3.651,0,0,1,13.226,19.534Zm-.216-7.1-.009,0-2.059.856a1.108,1.108,0,0,1-1.021-.423L9.067,10.8a.5.5,0,0,1,.272-.656,3.692,3.692,0,0,1,3.884,1.52.567.567,0,0,1,.06.107A.5.5,0,0,1,13.011,12.429Zm-2.913,2.9a.781.781,0,1,1-1.021-.423A.783.783,0,0,1,10.1,15.331ZM8.829,18.395l.855,2.064a.5.5,0,0,1-.272.657,3.647,3.647,0,0,1-3.937-1.632.5.5,0,0,1,.271-.657l2.062-.854A1.109,1.109,0,0,1,8.829,18.395ZM6.612,15.084l-2.062.854a.5.5,0,0,1-.656-.272,3.653,3.653,0,0,1,1.631-3.94A.5.5,0,0,1,6.18,12l.855,2.064A1.111,1.111,0,0,1,6.612,15.084Z" transform="translate(0 -0.009)"/>
</svg>
