<svg xmlns="http://www.w3.org/2000/svg" viewBox="0 0 45.867 41.534">
  <defs>
    <style>
      .cls-1 {
        fill: #fff;
        fill-rule: evenodd;
      }
    </style>
  </defs>
  <path id="Path_1853" data-name="Path 1853" class="cls-1" d="M45.781,38.424c-.013.057-.04.109-.056.165a3.576,3.576,0,0,1-.195.568c-.019.042-.049.077-.067.116a3.871,3.871,0,0,1-.331.551c-.02.027-.05.051-.07.078a4.084,4.084,0,0,1-.454.5c-.066.06-.142.1-.211.156a4.343,4.343,0,0,1-.441.326,3.7,3.7,0,0,1-.355.175c-.129.064-.254.135-.39.187-.113.042-.231.065-.345.1a4.591,4.591,0,0,1-.466.126c-.109.018-.221.018-.331.03a2.783,2.783,0,0,1-1,0c-.11-.012-.221-.012-.33-.03-.161-.03-.312-.081-.466-.125-.115-.032-.232-.056-.344-.1-.138-.052-.262-.123-.391-.187s-.242-.105-.355-.175a4.416,4.416,0,0,1-.444-.326c-.067-.055-.143-.1-.208-.156L31.658,34.37A17.677,17.677,0,0,1,17.2,41.543,18.11,18.11,0,0,1,5.484,37.336a6.723,6.723,0,0,1-3.312,4.022,1.556,1.556,0,0,1-.737.184,1.468,1.468,0,0,1-1.23-.63A1.231,1.231,0,0,1,.7,39.131a3.842,3.842,0,0,0,1.6-5.431A14.37,14.37,0,0,1,0,25.958,15.306,15.306,0,0,1,8.048,12.787L4.72,9.771c-.033-.031-.046-.071-.077-.105a3.156,3.156,0,0,1-.763.105A3.01,3.01,0,0,1,1.853,9.01L.84,8.093a2.429,2.429,0,0,1,0-3.677L4.893.745a3.157,3.157,0,0,1,4.053,0l1.013.918A2.457,2.457,0,0,1,10.8,3.5a2.325,2.325,0,0,1-.115.688.71.71,0,0,1,.1.056L17.812,10.4a17.608,17.608,0,0,1,13.846,7.145L38.542,11.5a4.03,4.03,0,0,1,.436-.323c.066-.045.123-.1.193-.143a4.2,4.2,0,0,1,.559-.274c.062-.027.118-.062.181-.086a4.265,4.265,0,0,1,.569-.16c.082-.021.159-.049.241-.065a4.835,4.835,0,0,1,.724-.066c.04,0,.08-.012.122-.012s.08.01.12.012a4.9,4.9,0,0,1,.717.065,4.016,4.016,0,0,1,.426.116c.128.035.257.061.381.106s.258.121.387.184.244.106.357.177a4.219,4.219,0,0,1,.443.327c.069.055.143.095.209.155a4.085,4.085,0,0,1,.454.5c.02.027.05.051.07.078a3.936,3.936,0,0,1,.328.545c.021.043.05.079.07.121a3.621,3.621,0,0,1,.195.568c.016.057.043.109.056.166a3.682,3.682,0,0,1,.086.777V37.646A3.7,3.7,0,0,1,45.781,38.424ZM6.92,2.582,2.867,6.257l1.012.914L7.934,3.5Zm2.03,3.67L6.92,8.091l3.8,3.442a18.322,18.322,0,0,1,3.261-.874Zm8.25,6.719c-7.9,0-14.333,5.827-14.333,12.987A11.96,11.96,0,0,0,4.62,32.174c.019.026.05.04.069.068.032.048.046.1.076.149A14.647,14.647,0,0,0,17.2,38.945c7.9,0,14.333-5.826,14.333-12.987S25.1,12.971,17.2,12.971Zm20.067,3.268L33.06,19.934a14.215,14.215,0,0,1,0,12.051l4.207,3.695ZM43,14.27a1.2,1.2,0,0,0-.112-.5,1.3,1.3,0,0,0-.272-.369c-.021-.021-.04-.044-.064-.065a1.46,1.46,0,0,0-.436-.264,1.557,1.557,0,0,0-1.1,0,1.46,1.46,0,0,0-.436.264,1.236,1.236,0,0,0-.449.935V37.646a1.237,1.237,0,0,0,.414.912,1.534,1.534,0,0,0,1.354.326,1.553,1.553,0,0,0,.209-.039,1.415,1.415,0,0,0,.447-.268c.022-.019.037-.04.057-.061a1.3,1.3,0,0,0,.272-.369,1.186,1.186,0,0,0,.112-.5ZM24.266,32.447a.957.957,0,0,1-1.2-.451l-1.568-3.43a1.772,1.772,0,0,1,.775-1.7l3.785-1.419a.956.956,0,0,1,1.2.452C28.166,27.891,26.462,31.623,24.266,32.447Zm-.4-11.8a.066.066,0,0,1-.016.005L20.077,22.07a2.138,2.138,0,0,1-1.873-.7l-1.568-3.429a.808.808,0,0,1,.5-1.09c2.124-.8,6.056.626,7.127,2.525a.922.922,0,0,1,.11.178A.809.809,0,0,1,23.871,20.643Zm-5.345,4.821a1.26,1.26,0,0,1-.775,1.7,1.488,1.488,0,0,1-1.873-.7,1.257,1.257,0,0,1,.775-1.7A1.49,1.49,0,0,1,18.526,25.463ZM16.2,30.554l1.568,3.429a.81.81,0,0,1-.5,1.091c-2.2.825-6.315-.723-7.224-2.712a.807.807,0,0,1,.5-1.091l3.784-1.419A2.139,2.139,0,0,1,16.2,30.554Zm-4.068-5.5L8.346,26.473a.958.958,0,0,1-1.2-.452c-.907-1.987.8-5.721,2.993-6.545a.959.959,0,0,1,1.2.452l1.568,3.429A1.769,1.769,0,0,1,12.13,25.053Z" transform="translate(0 -0.009)"/>
</svg>
