<svg xmlns="http://www.w3.org/2000/svg" viewBox="0 0 15 15">
  <defs>
    <style>
      .cls-1 {
        fill: #888da8;
      }
    </style>
  </defs>
  <path id="Path_1880" data-name="Path 1880" class="cls-1" d="M8.118,0,6.491,2.65,3.517,1.46l.262,3.083L.693,5.228,2.956,7.3.469,9.736l3.31.541-.524,3.516,3.086-1.731L7.969,15,9.6,12.206l2.9,1.442-.075-3.191,3.049-.361L13.393,7.59l2.039-2.362-2.974-.5.224-3.191L9.6,2.686Zm2.787,3.588L10.83,6.725l1.814,2.181L9.708,9.7,8.081,12.133,6.379,9.7l-2.9-.974L5.332,6.472a24.636,24.636,0,0,1-.15-2.849c.112.036,2.787,1.064,2.787,1.064ZM6.173,5.769V6.923H9.764V5.769Zm0,1.731V8.654H9.764V7.5Z" transform="translate(-0.469)"/>
</svg>
